<?xml version="1.0" encoding="utf-8"?>
<!-- Generator: Adobe Illustrator 25.1.0, SVG Export Plug-In . SVG Version: 6.00 Build 0)  -->
<svg version="1.1" id="Capa_1" xmlns="http://www.w3.org/2000/svg" xmlns:xlink="http://www.w3.org/1999/xlink" x="0px" y="0px"
	 width="160px" height="600px" viewBox="0 0 160 600" style="enable-background:new 0 0 160 600;" xml:space="preserve">
<style type="text/css">
	.st0{fill:#FFFFFF;}
</style>
<g>
	<path d="M33.27,412.49v-1.71c0.7,0.47,1.82,0.92,3.04,0.92c1.35,0,2.14-0.56,2.14-1.73c0-2.63-5.1-1.75-5.1-5.56
		c0-2,1.35-3.24,3.6-3.24c1.15,0,2.23,0.32,2.72,0.58v1.73c-0.7-0.45-1.69-0.83-2.61-0.83c-1.21,0-2,0.59-2,1.66
		c0,2.54,5.11,1.6,5.11,5.55c0,2.23-1.46,3.35-3.83,3.35C35,413.19,33.92,412.83,33.27,412.49z"/>
	<path d="M42.38,408.31v-6.97h1.67v6.61c0,2.39,0.68,3.71,2.86,3.71c2.11,0,2.86-1.26,2.86-3.71v-6.61h1.67v6.95
		c0,3.49-1.58,4.9-4.54,4.9C43.84,413.19,42.38,411.64,42.38,408.31z"/>
	<path d="M53.86,412.49v-1.71c0.7,0.47,1.82,0.92,3.04,0.92c1.35,0,2.14-0.56,2.14-1.73c0-2.63-5.1-1.75-5.1-5.56
		c0-2,1.35-3.24,3.6-3.24c1.15,0,2.23,0.32,2.72,0.58v1.73c-0.7-0.45-1.69-0.83-2.61-0.83c-1.21,0-2,0.59-2,1.66
		c0,2.54,5.11,1.6,5.11,5.55c0,2.23-1.46,3.35-3.83,3.35C55.59,413.19,54.51,412.83,53.86,412.49z"/>
	<path d="M62.57,407.2c0-3.51,2.2-6.03,5.87-6.03c1.55,0,2.81,0.45,3.31,0.85v1.69c-0.94-0.63-2.05-0.99-3.22-0.99
		c-2.61,0-4.25,1.78-4.25,4.45c0,2.85,1.85,4.47,4.38,4.47c1.35,0,2.52-0.47,3.28-0.97v1.71c-0.49,0.36-1.8,0.83-3.44,0.83
		C64.72,413.19,62.57,410.67,62.57,407.2z"/>
	<path d="M83.24,413.01h-2.02l-2.7-4.29h-2.29v4.29h-1.69v-11.67h3.57c2.47,0,4.57,0.76,4.57,3.67c0,2.05-1.15,3.1-2.43,3.46
		L83.24,413.01z M80.97,405.04c0-1.94-1.64-2.27-3.08-2.27h-1.66v4.55h1.71C79.44,407.32,80.97,406.96,80.97,405.04z"/>
	<path d="M85.29,401.34h1.69v11.67h-1.69V401.34z M87.41,397.24h2.16l-2.67,2.95h-1.6L87.41,397.24z"/>
	<path d="M98.31,409.74c0,2.88-2.72,3.28-4.55,3.28h-3.75v-11.67h2.92c2.3,0,4.68,0.32,4.68,3.13c0,1.42-0.77,2.12-1.55,2.36
		C97.12,407.05,98.31,407.75,98.31,409.74z M92.9,402.75H91.7v3.64h1.22c1.44,0,2.97-0.13,2.97-1.82
		C95.89,402.86,94.36,402.75,92.9,402.75z M96.58,409.66c0-1.57-1.24-1.89-2.77-1.89H91.7v3.8h2.03
		C95.3,411.57,96.58,411.21,96.58,409.66z"/>
	<path d="M100.63,401.34h6.9v1.44h-5.2v3.56h3.8v1.42h-3.8v3.78h5.42v1.46h-7.11V401.34z"/>
	<path d="M112.6,402.79h-3.4v-1.44h8.5v1.44h-3.4v10.23h-1.69V402.79z"/>
	<path d="M119.92,401.34h6.9v1.44h-5.2v3.56h3.8v1.42h-3.8v3.78h5.42v1.46h-7.11V401.34z"/>
	<path d="M14.85,433.16h0.18l5.29,11.85h-1.8l-0.99-2.3h-5.26l-0.99,2.3H9.54L14.85,433.16z M16.99,441.3l-2.07-4.81l-2.07,4.81
		H16.99z"/>
	<path d="M36.9,445.55l-1.94-1.57c-0.95,0.77-2.21,1.21-3.69,1.21c-3.67,0-5.8-2.61-5.8-6.01c0-3.46,2.2-6.01,5.87-6.01
		c3.67,0,5.8,2.56,5.8,5.94c0,1.42-0.38,2.83-1.17,3.87l1.84,1.46L36.9,445.55z M35.42,439.14c0-2.61-1.67-4.43-4.12-4.43
		c-2.41,0-4.12,1.82-4.12,4.43c0,2.57,1.66,4.48,4.14,4.48c0.9,0,1.69-0.23,2.36-0.67l-1.89-1.51l0.9-1.12l1.96,1.6
		C35.15,441.16,35.42,440.22,35.42,439.14z"/>
	<path d="M39.45,440.31v-6.97h1.67v6.61c0,2.39,0.68,3.71,2.86,3.71c2.11,0,2.86-1.26,2.86-3.71v-6.61h1.67v6.95
		c0,3.49-1.58,4.9-4.54,4.9C40.91,445.19,39.45,443.64,39.45,440.31z"/>
	<path d="M51.41,433.34h6.9v1.44h-5.2v3.56h3.8v1.42h-3.8v3.78h5.42v1.46h-7.11V433.34z"/>
	<path d="M65.88,434.79h-3.4v-1.44h8.5v1.44h-3.4v10.23h-1.69V434.79z"/>
	<path d="M73.2,433.34h6.9v1.44h-5.2v3.56h3.8v1.42h-3.8v3.78h5.42v1.46H73.2V433.34z"/>
	<path d="M86.22,433.34h1.69v11.67h-1.69V433.34z"/>
	<path d="M92.57,436.86v8.16h-1.64v-11.85h0.18l7.89,8.36v-8.17h1.64v11.85h-0.18L92.57,436.86z"/>
	<path d="M102.56,433.34h1.85l3.69,8.37l3.69-8.37h1.82l-5.44,11.83H108L102.56,433.34z"/>
	<path d="M115.54,433.34h1.69v11.67h-1.69V433.34z"/>
	<path d="M122.87,434.79h-3.4v-1.44h8.5v1.44h-3.4v10.23h-1.69V434.79z"/>
	<path d="M130.19,433.34h6.9v1.44h-5.2v3.56h3.8v1.42h-3.8v3.78h5.42v1.46h-7.11V433.34z"/>
	<path d="M141.06,436.86v8.16h-1.64v-11.85h0.18l7.89,8.36v-8.17h1.64v11.85h-0.18L141.06,436.86z"/>
	<path d="M52.62,465.16h0.18l5.29,11.85h-1.8l-0.99-2.3h-5.26l-0.99,2.3h-1.75L52.62,465.16z M54.76,473.3l-2.07-4.81l-2.07,4.81
		H54.76z"/>
	<path d="M60.02,465.34h1.69v10.21h5.6v1.46h-7.29V465.34z"/>
	<path d="M72.69,471.2c0-3.51,2.2-6.03,5.87-6.03c1.55,0,2.81,0.45,3.31,0.85v1.69c-0.94-0.63-2.05-0.99-3.22-0.99
		c-2.61,0-4.25,1.78-4.25,4.45c0,2.85,1.85,4.47,4.38,4.47c1.35,0,2.52-0.47,3.28-0.97v1.71c-0.49,0.36-1.8,0.83-3.44,0.83
		C74.83,477.19,72.69,474.67,72.69,471.2z"/>
	<path d="M88.76,465.16h0.18l5.29,11.85h-1.8l-0.99-2.3h-5.26l-0.99,2.3h-1.75L88.76,465.16z M90.91,473.3l-2.07-4.81l-2.07,4.81
		H90.91z"/>
	<path d="M96.16,465.34h6.95v1.44h-5.26v3.8h3.89v1.42h-3.89v5h-1.69V465.34z"/>
	<path d="M105.14,465.34h6.9v1.44h-5.2v3.56h3.8v1.42h-3.8v3.78h5.42v1.46h-7.11V465.34z M109.48,461.24h2.16l-2.67,2.95h-1.6
		L109.48,461.24z"/>
	<path d="M25.88,503.03c0,5.11-4.02,5.98-7.38,5.98h-2.36v-11.67h2.27C21.89,497.34,25.88,497.88,25.88,503.03z M24.17,503.03
		c0-3.75-2.63-4.27-5.76-4.27h-0.58v8.8h0.52C21.56,507.57,24.17,506.73,24.17,503.03z"/>
	<path d="M28.35,497.34h6.9v1.44h-5.2v3.56h3.8v1.42h-3.8v3.78h5.42v1.46h-7.11V497.34z"/>
	<path d="M41.36,497.34h1.69v10.21h5.6v1.46h-7.29V497.34z"/>
	<path d="M49.78,503.18c0-3.46,2.2-6.01,5.87-6.01c3.67,0,5.8,2.56,5.8,5.94c0,3.44-2.16,6.09-5.87,6.09
		C51.91,509.19,49.78,506.58,49.78,503.18z M59.74,503.14c0-2.61-1.67-4.43-4.12-4.43c-2.41,0-4.12,1.82-4.12,4.43
		c0,2.57,1.66,4.48,4.14,4.48C58.1,507.63,59.74,505.75,59.74,503.14z"/>
	<path d="M63.52,508.49v-1.71c0.7,0.47,1.82,0.92,3.04,0.92c1.35,0,2.14-0.56,2.14-1.73c0-2.63-5.1-1.75-5.1-5.56
		c0-2,1.35-3.24,3.6-3.24c1.15,0,2.23,0.32,2.72,0.58v1.73c-0.7-0.45-1.69-0.83-2.61-0.83c-1.21,0-2,0.59-2,1.66
		c0,2.54,5.11,1.6,5.11,5.55c0,2.23-1.46,3.35-3.83,3.35C65.25,509.19,64.17,508.83,63.52,508.49z"/>
	<path d="M74.32,497.34h1.85l3.69,8.37l3.69-8.37h1.82l-5.44,11.83h-0.18L74.32,497.34z"/>
	<path d="M87.3,497.34h1.69v11.67H87.3V497.34z"/>
	<path d="M92.01,497.34h6.9v1.44h-5.2v3.56h3.8v1.42h-3.8v3.78h5.42v1.46h-7.11V497.34z"/>
	<path d="M109.94,509.01h-2.02l-2.7-4.29h-2.29v4.29h-1.69v-11.67h3.56c2.47,0,4.57,0.76,4.57,3.67c0,2.05-1.15,3.1-2.43,3.46
		L109.94,509.01z M107.67,501.04c0-1.94-1.64-2.27-3.08-2.27h-1.66v4.55h1.71C106.14,503.32,107.67,502.96,107.67,501.04z"/>
	<path d="M113.63,500.86v8.16h-1.64v-11.85h0.18l7.89,8.36v-8.17h1.64v11.85h-0.18L113.63,500.86z"/>
	<path d="M124.72,497.34h6.9v1.44h-5.2v3.56h3.8v1.42h-3.8v3.78h5.42v1.46h-7.11V497.34z"/>
	<path d="M133.59,508.49v-1.71c0.7,0.47,1.82,0.92,3.04,0.92c1.35,0,2.14-0.56,2.14-1.73c0-2.63-5.1-1.75-5.1-5.56
		c0-2,1.35-3.24,3.6-3.24c1.15,0,2.23,0.32,2.72,0.58v1.73c-0.7-0.45-1.69-0.83-2.61-0.83c-1.21,0-2,0.59-2,1.66
		c0,2.54,5.11,1.6,5.11,5.55c0,2.23-1.46,3.35-3.83,3.35C135.32,509.19,134.24,508.83,133.59,508.49z"/>
</g>
<g>
	<path d="M27.94,537.88h1.31v5.17h6.73v-5.17h1.31v11.67h-1.31v-5.37h-6.73v5.37h-1.31V537.88z"/>
	<path d="M46.52,544.57v4.97h-1.13l-0.02-1.13c-0.36,0.63-1.13,1.3-2.7,1.3c-1.89,0-2.99-1.08-2.99-2.61c0-1.66,1.21-2.67,3.33-2.67
		c0.95,0,1.73,0.23,2.25,0.52v-0.31c0-1.4-0.58-2.27-2.25-2.27c-1.1,0-2.05,0.41-2.56,0.72v-1.13c0.5-0.27,1.37-0.65,2.77-0.65
		C45.62,541.32,46.52,542.58,46.52,544.57z M45.26,546.25v-0.32c-0.45-0.32-1.28-0.58-2.18-0.58c-1.33,0-2.11,0.61-2.11,1.69
		s0.79,1.73,1.96,1.73C44.54,548.77,45.26,547.73,45.26,546.25z"/>
	<path d="M48.52,549.24v-1.12c0.4,0.23,1.21,0.58,2.12,0.58c1.03,0,1.69-0.43,1.69-1.33c0-2.11-3.71-1.06-3.71-3.87
		c0-1.48,1.01-2.18,2.56-2.18c0.9,0,1.6,0.25,1.84,0.4v1.1c-0.4-0.23-1.03-0.49-1.78-0.49c-1.03,0-1.42,0.49-1.42,1.1
		c0,1.87,3.73,0.88,3.73,3.85c0,1.69-1.22,2.43-2.83,2.43C49.72,549.71,48.86,549.44,48.52,549.24z"/>
	<path d="M56.04,547.11v-4.61H54.8v-0.16c0.85-0.65,1.87-1.95,2.34-2.92h0.16v2.05h2.36v1.03H57.3v4.39c0,1.08,0.2,1.73,1.37,1.73
		c0.56,0,1.01-0.14,1.31-0.27v1.08c-0.27,0.13-0.85,0.27-1.55,0.27C56.58,549.71,56.04,548.66,56.04,547.11z"/>
	<path d="M68.14,544.57v4.97H67l-0.02-1.13c-0.36,0.63-1.13,1.3-2.7,1.3c-1.89,0-2.99-1.08-2.99-2.61c0-1.66,1.21-2.67,3.33-2.67
		c0.95,0,1.73,0.23,2.25,0.52v-0.31c0-1.4-0.58-2.27-2.25-2.27c-1.1,0-2.05,0.41-2.56,0.72v-1.13c0.5-0.27,1.37-0.65,2.77-0.65
		C67.24,541.32,68.14,542.58,68.14,544.57z M66.88,546.25v-0.32c-0.45-0.32-1.28-0.58-2.18-0.58c-1.33,0-2.11,0.61-2.11,1.69
		s0.79,1.73,1.96,1.73C66.16,548.77,66.88,547.73,66.88,546.25z"/>
	<path d="M76.9,539.35l-2.72,1.24v-1.17l3.85-1.73h0.14v11.85H76.9V539.35z"/>
	<path d="M81.55,543.69c0-3.26,1.46-6,4.39-6c2.93,0,4.39,2.74,4.39,6c0,3.33-1.49,6.03-4.39,6.03
		C83,549.72,81.55,547.01,81.55,543.69z M88.98,543.69c0-2.88-1.03-4.84-3.04-4.84c-1.98,0-3.04,1.94-3.04,4.84s1.08,4.84,3.04,4.84
		C87.94,548.54,88.98,546.59,88.98,543.69z"/>
	<path d="M95.84,545.58c0-2.57,1.58-4.27,4.18-4.27c1.12,0,1.87,0.32,2.12,0.43v1.22c-0.41-0.25-1.12-0.56-2.04-0.56
		c-1.8,0-2.95,1.17-2.95,3.1s1.08,3.1,2.95,3.1c1.03,0,1.78-0.38,2.11-0.61v1.21c-0.32,0.22-1.15,0.5-2.23,0.5
		C97.6,549.71,95.84,548.27,95.84,545.58z"/>
	<path d="M110.56,544.57v4.97h-1.13l-0.02-1.13c-0.36,0.63-1.13,1.3-2.7,1.3c-1.89,0-2.99-1.08-2.99-2.61
		c0-1.66,1.21-2.67,3.33-2.67c0.95,0,1.73,0.23,2.25,0.52v-0.31c0-1.4-0.58-2.27-2.25-2.27c-1.1,0-2.05,0.41-2.56,0.72v-1.13
		c0.5-0.27,1.37-0.65,2.77-0.65C109.66,541.32,110.56,542.58,110.56,544.57z M109.3,546.25v-0.32c-0.45-0.32-1.28-0.58-2.18-0.58
		c-1.33,0-2.11,0.61-2.11,1.69s0.79,1.73,1.96,1.73C108.58,548.77,109.3,547.73,109.3,546.25z"/>
	<path d="M113.75,542.5h-1.37v-1.03h1.37v-0.79c0-2.16,0.85-3.31,2.93-3.31c0.67,0,1.22,0.12,1.57,0.29v1.12
		c-0.32-0.16-0.83-0.31-1.44-0.31c-1.31,0-1.8,0.72-1.8,2.3v0.7h2.39v1.03h-2.39v7.04h-1.26V542.5z"/>
	<path d="M118.23,545.58c0-2.52,1.42-4.27,3.91-4.27c2.36,0,3.73,1.51,3.73,3.89c0,0.27-0.02,0.59-0.05,0.77h-6.27
		c0.09,1.78,1.21,2.65,3.15,2.65c1.39,0,2.36-0.45,2.81-0.7v1.13c-0.42,0.23-1.55,0.65-2.99,0.65
		C119.74,549.71,118.23,548.21,118.23,545.58z M124.57,545.06c0.07-1.69-0.95-2.68-2.43-2.68s-2.5,1.06-2.59,2.68H124.57z
		 M122.98,537.28h1.67l-2.5,2.9h-1.24L122.98,537.28z"/>
	<path d="M127.61,549.24v-1.12c0.4,0.23,1.21,0.58,2.12,0.58c1.03,0,1.69-0.43,1.69-1.33c0-2.11-3.71-1.06-3.71-3.87
		c0-1.48,1.01-2.18,2.56-2.18c0.9,0,1.6,0.25,1.84,0.4v1.1c-0.4-0.23-1.03-0.49-1.78-0.49c-1.03,0-1.42,0.49-1.42,1.1
		c0,1.87,3.73,0.88,3.73,3.85c0,1.69-1.22,2.43-2.83,2.43C128.81,549.71,127.95,549.44,127.61,549.24z"/>
	<path d="M21.46,571.24v-1.12c0.4,0.23,1.21,0.58,2.12,0.58c1.03,0,1.69-0.43,1.69-1.33c0-2.11-3.71-1.06-3.71-3.87
		c0-1.48,1.01-2.18,2.56-2.18c0.9,0,1.6,0.25,1.84,0.4v1.1c-0.4-0.23-1.03-0.49-1.78-0.49c-1.03,0-1.42,0.49-1.42,1.1
		c0,1.87,3.73,0.88,3.73,3.85c0,1.69-1.22,2.43-2.83,2.43C22.67,571.71,21.8,571.44,21.46,571.24z"/>
	<path d="M28.84,564.5h-1.13v-1.03h2.39v8.07h-1.26V564.5z M28.64,560.56c0-0.49,0.38-0.81,0.83-0.81c0.47,0,0.81,0.32,0.81,0.83
		c0,0.49-0.36,0.81-0.81,0.81C28.99,561.39,28.64,561.05,28.64,560.56z"/>
	<path d="M32.77,563.48h1.15l0.02,1.3c0.43-0.9,1.39-1.46,2.81-1.46c2.14,0,3.1,1.19,3.1,3.51v4.72h-1.26v-4.43
		c0-1.55-0.34-2.7-2.12-2.7c-1.66,0-2.43,1.1-2.43,3.24v3.89h-1.26V563.48z"/>
	<path d="M45.6,567.58c0-2.57,1.58-4.27,4.18-4.27c1.12,0,1.87,0.32,2.12,0.43v1.22c-0.41-0.25-1.12-0.56-2.03-0.56
		c-1.8,0-2.95,1.17-2.95,3.1s1.08,3.1,2.95,3.1c1.03,0,1.78-0.38,2.11-0.61v1.21c-0.32,0.22-1.15,0.5-2.23,0.5
		C47.36,571.71,45.6,570.27,45.6,567.58z"/>
	<path d="M53.48,567.53c0-2.41,1.58-4.21,4.21-4.21c2.48,0,4.18,1.53,4.18,4.12c0,2.57-1.71,4.27-4.21,4.27
		C55.1,571.71,53.48,570,53.48,567.53z M60.56,567.47c0-1.91-1.22-3.06-2.88-3.06c-1.8,0-2.88,1.35-2.88,3.12
		c0,1.89,1.19,3.08,2.86,3.08C59.35,570.61,60.56,569.4,60.56,567.47z"/>
	<path d="M63.62,571.24v-1.12c0.4,0.23,1.21,0.58,2.12,0.58c1.03,0,1.69-0.43,1.69-1.33c0-2.11-3.71-1.06-3.71-3.87
		c0-1.48,1.01-2.18,2.56-2.18c0.9,0,1.6,0.25,1.84,0.4v1.1c-0.4-0.23-1.03-0.49-1.78-0.49c-1.03,0-1.42,0.49-1.42,1.1
		c0,1.87,3.73,0.88,3.73,3.85c0,1.69-1.22,2.43-2.83,2.43C64.82,571.71,63.96,571.44,63.62,571.24z"/>
	<path d="M71.14,569.11v-4.61H69.9v-0.16c0.85-0.65,1.87-1.95,2.34-2.92h0.16v2.05h2.36v1.03H72.4v4.39c0,1.08,0.2,1.73,1.37,1.73
		c0.56,0,1.01-0.14,1.31-0.27v1.08c-0.27,0.13-0.85,0.27-1.55,0.27C71.68,571.71,71.14,570.66,71.14,569.11z"/>
	<path d="M76.4,567.58c0-2.52,1.42-4.27,3.91-4.27c2.36,0,3.73,1.51,3.73,3.89c0,0.27-0.02,0.59-0.05,0.77h-6.27
		c0.09,1.78,1.21,2.65,3.15,2.65c1.39,0,2.36-0.45,2.81-0.7v1.13c-0.41,0.23-1.55,0.65-2.99,0.65
		C77.91,571.71,76.4,570.21,76.4,567.58z M82.74,567.06c0.07-1.69-0.96-2.68-2.43-2.68c-1.48,0-2.5,1.06-2.59,2.68H82.74z"/>
	<path d="M96.2,566.57v4.97h-1.13l-0.02-1.13c-0.36,0.63-1.13,1.3-2.7,1.3c-1.89,0-2.99-1.08-2.99-2.61c0-1.66,1.21-2.67,3.33-2.67
		c0.95,0,1.73,0.23,2.25,0.52v-0.31c0-1.4-0.58-2.27-2.25-2.27c-1.1,0-2.05,0.41-2.56,0.72v-1.13c0.5-0.27,1.37-0.65,2.77-0.65
		C95.3,563.32,96.2,564.58,96.2,566.57z M94.94,568.25v-0.32c-0.45-0.32-1.28-0.58-2.18-0.58c-1.33,0-2.11,0.61-2.11,1.69
		s0.79,1.73,1.96,1.73C94.22,570.77,94.94,569.73,94.94,568.25z"/>
	<path d="M98.73,559.61H100v11.94h-1.26V559.61z"/>
	<path d="M106.44,563.48h1.15l0.02,1.21c0.43-0.81,1.3-1.37,2.57-1.37c1.24,0,2.14,0.47,2.52,1.57c0.45-0.95,1.39-1.57,2.75-1.57
		c1.84,0,2.86,0.99,2.86,3.21v5.02h-1.26v-4.9c0-1.24-0.36-2.23-1.84-2.23c-1.75,0-2.21,1.39-2.21,3.19v3.94h-1.26v-4.9
		c0-1.24-0.38-2.23-1.84-2.23c-1.75,0-2.21,1.39-2.21,3.19v3.94h-1.26V563.48z"/>
	<path d="M120.3,567.58c0-2.52,1.42-4.27,3.91-4.27c2.36,0,3.73,1.51,3.73,3.89c0,0.27-0.02,0.59-0.05,0.77h-6.27
		c0.09,1.78,1.21,2.65,3.15,2.65c1.39,0,2.36-0.45,2.81-0.7v1.13c-0.41,0.23-1.55,0.65-2.99,0.65
		C121.81,571.71,120.3,570.21,120.3,567.58z M126.64,567.06c0.07-1.69-0.95-2.68-2.43-2.68s-2.5,1.06-2.59,2.68H126.64z"/>
	<path d="M129.68,571.24v-1.12c0.4,0.23,1.21,0.58,2.12,0.58c1.03,0,1.69-0.43,1.69-1.33c0-2.11-3.71-1.06-3.71-3.87
		c0-1.48,1.01-2.18,2.56-2.18c0.9,0,1.6,0.25,1.84,0.4v1.1c-0.4-0.23-1.03-0.49-1.78-0.49c-1.03,0-1.42,0.49-1.42,1.1
		c0,1.87,3.73,0.88,3.73,3.85c0,1.69-1.22,2.43-2.83,2.43C130.88,571.71,130.02,571.44,129.68,571.24z"/>
</g>
<g>
	<path class="st0" d="M42.62,240.66v-1.37c0.49,0.34,1.25,0.64,2.05,0.64c0.85,0,1.27-0.35,1.27-0.97c0-1.58-3.25-1.06-3.25-3.63
		c0-1.36,0.91-2.21,2.46-2.21c0.74,0,1.49,0.19,1.82,0.37v1.37c-0.47-0.3-1.14-0.55-1.74-0.55c-0.73,0-1.17,0.35-1.17,0.95
		c0,1.52,3.26,0.97,3.26,3.6c0,1.49-0.97,2.28-2.61,2.28C43.78,241.12,43.05,240.87,42.62,240.66z"/>
	<path class="st0" d="M49.98,237.86v-4.63h1.36v4.35c0,1.42,0.32,2.3,1.71,2.3c1.36,0,1.73-0.85,1.73-2.3v-4.35h1.34v4.62
		c0,2.35-1.08,3.27-3.07,3.27C51.01,241.12,49.98,240.15,49.98,237.86z"/>
	<path class="st0" d="M58.92,240.66v-1.37c0.49,0.34,1.25,0.64,2.05,0.64c0.85,0,1.27-0.35,1.27-0.97c0-1.58-3.25-1.06-3.25-3.63
		c0-1.36,0.91-2.21,2.46-2.21c0.74,0,1.49,0.19,1.82,0.37v1.37c-0.47-0.3-1.14-0.55-1.74-0.55c-0.73,0-1.17,0.35-1.17,0.95
		c0,1.52,3.26,0.97,3.26,3.6c0,1.49-0.97,2.28-2.61,2.28C60.09,241.12,59.36,240.87,58.92,240.66z"/>
	<path class="st0" d="M65.91,237.13c0-2.34,1.52-4.02,3.98-4.02c1.03,0,1.87,0.3,2.19,0.55v1.36c-0.62-0.42-1.37-0.66-2.12-0.66
		c-1.62,0-2.67,1.12-2.67,2.75c0,1.75,1.2,2.76,2.78,2.76c0.88,0,1.64-0.31,2.13-0.65v1.37c-0.32,0.24-1.2,0.54-2.28,0.54
		C67.36,241.12,65.91,239.41,65.91,237.13z"/>
	<path class="st0" d="M81.03,241H79.4l-1.74-2.76h-1.2V241h-1.36v-7.77h2.31c1.64,0,3.21,0.4,3.21,2.49c0,1.31-0.73,2.04-1.58,2.32
		L81.03,241z M79.26,235.74c0-1.28-1.17-1.37-1.98-1.37h-0.82v2.75h0.82C78.23,237.12,79.26,236.97,79.26,235.74z"/>
	<path class="st0" d="M84.99,230.5h1.74l-1.87,1.99h-1.29L84.99,230.5z M83.57,233.23h1.36V241h-1.36V233.23z"/>
	<path class="st0" d="M93.76,238.8c0,2-2.01,2.21-3.19,2.21h-2.43v-7.77h1.98c1.54,0,3.19,0.19,3.19,2.12
		c0,0.89-0.48,1.34-0.97,1.52C92.99,237.02,93.76,237.47,93.76,238.8z M90.11,234.36H89.5v2.13h0.59c0.94,0,1.86-0.07,1.86-1.07
		C91.94,234.41,91.02,234.36,90.11,234.36z M92.39,238.73c0-1-0.86-1.12-1.79-1.12h-1.1v2.24h1.07
		C91.51,239.85,92.39,239.72,92.39,238.73z"/>
	<path class="st0" d="M96.53,233.23h4.69v1.15h-3.33v2.09h2.4v1.14h-2.4v2.23h3.48V241h-4.83V233.23z"/>
	<path class="st0" d="M105.75,234.38h-2.21v-1.15h5.76v1.15h-2.19V241h-1.36V234.38z"/>
	<path class="st0" d="M111.81,233.23h4.69v1.15h-3.33v2.09h2.4v1.14h-2.4v2.23h3.48V241h-4.83V233.23z"/>
</g>
<g>
	<path d="M38.83,356.55l-1.08,0.71l-0.27-0.47l1.15-0.58l-1.15-0.58l0.27-0.47l1.08,0.71l-0.07-1.3h0.55l-0.07,1.3l1.08-0.71
		l0.26,0.47l-1.16,0.58l1.16,0.58l-0.26,0.47l-1.08-0.71l0.07,1.3h-0.55L38.83,356.55z"/>
	<path d="M41.96,354.57h0.88l2.45,5.6l2.45-5.6h0.87l-3.27,7.23h-0.11L41.96,354.57z"/>
	<path d="M49.3,359.28c0-1.54,0.87-2.61,2.39-2.61c1.44,0,2.28,0.92,2.28,2.38c0,0.16-0.01,0.36-0.03,0.47h-3.83
		c0.05,1.09,0.74,1.62,1.93,1.62c0.85,0,1.44-0.28,1.72-0.43v0.69c-0.25,0.14-0.95,0.4-1.83,0.4
		C50.23,361.79,49.3,360.88,49.3,359.28z M53.18,358.96c0.04-1.04-0.58-1.64-1.49-1.64c-0.9,0-1.53,0.65-1.58,1.64H53.18z"/>
	<path d="M55.84,356.77h0.7l0.01,0.82c0.24-0.53,0.84-0.92,1.6-0.92c0.14,0,0.26,0.02,0.3,0.03v0.7c-0.08-0.03-0.24-0.06-0.43-0.06
		c-0.92,0-1.41,0.66-1.41,1.98v2.38h-0.77V356.77z"/>
	<path d="M62.51,359.28c0-1.57,0.97-2.61,2.55-2.61c0.68,0,1.14,0.2,1.3,0.26v0.75c-0.25-0.15-0.68-0.34-1.24-0.34
		c-1.1,0-1.8,0.71-1.8,1.89c0,1.18,0.66,1.89,1.8,1.89c0.63,0,1.09-0.23,1.29-0.37v0.74c-0.2,0.13-0.7,0.31-1.36,0.31
		C63.59,361.79,62.51,360.91,62.51,359.28z"/>
	<path d="M67.8,359.24c0-1.47,0.97-2.57,2.57-2.57c1.52,0,2.55,0.94,2.55,2.52c0,1.57-1.04,2.61-2.57,2.61
		C68.79,361.79,67.8,360.75,67.8,359.24z M72.13,359.21c0-1.17-0.75-1.87-1.76-1.87c-1.1,0-1.76,0.82-1.76,1.9
		c0,1.16,0.73,1.88,1.75,1.88C71.39,361.12,72.13,360.39,72.13,359.21z"/>
	<path d="M74.78,356.77h0.7l0.01,0.79c0.26-0.55,0.85-0.89,1.72-0.89c1.31,0,1.89,0.73,1.89,2.14v2.88h-0.77v-2.71
		c0-0.95-0.21-1.65-1.3-1.65c-1.01,0-1.48,0.67-1.48,1.98v2.38h-0.77V356.77z"/>
	<path d="M80.9,359.25c0-1.45,0.87-2.59,2.43-2.59c0.94,0,1.54,0.41,1.86,0.92v-3.19h0.77v7.29h-0.7l-0.01-0.9
		c-0.26,0.54-0.9,1-1.89,1C81.91,361.79,80.9,360.83,80.9,359.25z M85.23,359.21c0-1.06-0.62-1.87-1.75-1.87
		c-1.2,0-1.77,0.91-1.77,1.9c0,1.06,0.64,1.88,1.77,1.88C84.63,361.12,85.23,360.27,85.23,359.21z"/>
	<path d="M88.28,357.39h-0.69v-0.63h1.46v4.93h-0.77V357.39z M88.16,354.98c0-0.3,0.23-0.49,0.51-0.49c0.29,0,0.5,0.2,0.5,0.51
		c0,0.3-0.22,0.49-0.5,0.49C88.37,355.49,88.16,355.28,88.16,354.98z"/>
	<path d="M90.88,359.28c0-1.57,0.97-2.61,2.55-2.61c0.68,0,1.14,0.2,1.3,0.26v0.75c-0.25-0.15-0.68-0.34-1.24-0.34
		c-1.1,0-1.8,0.71-1.8,1.89c0,1.18,0.66,1.89,1.8,1.89c0.63,0,1.09-0.23,1.29-0.37v0.74c-0.2,0.13-0.7,0.31-1.36,0.31
		C91.95,361.79,90.88,360.91,90.88,359.28z"/>
	<path d="M96.89,357.39H96.2v-0.63h1.46v4.93h-0.77V357.39z M96.77,354.98c0-0.3,0.23-0.49,0.51-0.49c0.29,0,0.5,0.2,0.5,0.51
		c0,0.3-0.22,0.49-0.5,0.49C96.98,355.49,96.77,355.28,96.77,354.98z"/>
	<path d="M99.48,359.24c0-1.47,0.97-2.57,2.58-2.57c1.52,0,2.55,0.94,2.55,2.52c0,1.57-1.04,2.61-2.57,2.61
		C100.47,361.79,99.48,360.75,99.48,359.24z M103.81,359.21c0-1.17-0.75-1.87-1.76-1.87c-1.1,0-1.76,0.82-1.76,1.9
		c0,1.16,0.73,1.88,1.75,1.88C103.07,361.12,103.81,360.39,103.81,359.21z"/>
	<path d="M106.46,356.77h0.7l0.01,0.79c0.26-0.55,0.85-0.89,1.72-0.89c1.31,0,1.89,0.73,1.89,2.14v2.88h-0.77v-2.71
		c0-0.95-0.21-1.65-1.3-1.65c-1.01,0-1.49,0.67-1.49,1.98v2.38h-0.77V356.77z"/>
	<path d="M112.58,359.28c0-1.54,0.87-2.61,2.39-2.61c1.44,0,2.28,0.92,2.28,2.38c0,0.16-0.01,0.36-0.03,0.47h-3.83
		c0.05,1.09,0.74,1.62,1.92,1.62c0.85,0,1.44-0.28,1.72-0.43v0.69c-0.25,0.14-0.95,0.4-1.83,0.4
		C113.51,361.79,112.58,360.88,112.58,359.28z M116.46,358.96c0.04-1.04-0.58-1.64-1.49-1.64s-1.53,0.65-1.58,1.64H116.46z"/>
	<path d="M118.8,361.51v-0.68c0.24,0.14,0.74,0.35,1.3,0.35c0.63,0,1.03-0.27,1.03-0.81c0-1.29-2.27-0.65-2.27-2.37
		c0-0.9,0.62-1.33,1.56-1.33c0.55,0,0.98,0.15,1.12,0.24v0.67c-0.24-0.14-0.63-0.3-1.09-0.3c-0.63,0-0.87,0.3-0.87,0.67
		c0,1.14,2.28,0.54,2.28,2.36c0,1.03-0.75,1.48-1.73,1.48C119.54,361.79,119.01,361.63,118.8,361.51z"/>
</g>
<g>
	<path d="M42.62,270.66v-1.37c0.49,0.34,1.25,0.64,2.05,0.64c0.85,0,1.27-0.35,1.27-0.97c0-1.58-3.25-1.06-3.25-3.63
		c0-1.36,0.91-2.21,2.46-2.21c0.74,0,1.49,0.19,1.82,0.37v1.37c-0.47-0.3-1.14-0.55-1.74-0.55c-0.73,0-1.17,0.35-1.17,0.95
		c0,1.52,3.26,0.97,3.26,3.6c0,1.49-0.97,2.28-2.61,2.28C43.78,271.12,43.05,270.87,42.62,270.66z"/>
	<path d="M49.98,267.86v-4.63h1.36v4.35c0,1.42,0.32,2.3,1.71,2.3c1.36,0,1.73-0.85,1.73-2.3v-4.35h1.34v4.62
		c0,2.35-1.08,3.27-3.07,3.27C51.01,271.12,49.98,270.15,49.98,267.86z"/>
	<path d="M58.92,270.66v-1.37c0.49,0.34,1.25,0.64,2.05,0.64c0.85,0,1.27-0.35,1.27-0.97c0-1.58-3.25-1.06-3.25-3.63
		c0-1.36,0.91-2.21,2.46-2.21c0.74,0,1.49,0.19,1.82,0.37v1.37c-0.47-0.3-1.14-0.55-1.74-0.55c-0.73,0-1.17,0.35-1.17,0.95
		c0,1.52,3.26,0.97,3.26,3.6c0,1.49-0.97,2.28-2.61,2.28C60.09,271.12,59.36,270.87,58.92,270.66z"/>
	<path d="M65.91,267.13c0-2.34,1.52-4.02,3.98-4.02c1.03,0,1.87,0.3,2.19,0.55v1.36c-0.62-0.42-1.37-0.66-2.12-0.66
		c-1.62,0-2.67,1.12-2.67,2.75c0,1.75,1.2,2.76,2.78,2.76c0.88,0,1.64-0.31,2.13-0.65v1.37c-0.32,0.24-1.2,0.54-2.28,0.54
		C67.36,271.12,65.91,269.41,65.91,267.13z"/>
	<path d="M81.03,271H79.4l-1.74-2.76h-1.2V271h-1.36v-7.77h2.31c1.64,0,3.21,0.4,3.21,2.49c0,1.31-0.73,2.04-1.58,2.32L81.03,271z
		 M79.26,265.74c0-1.28-1.17-1.37-1.98-1.37h-0.82v2.75h0.82C78.23,267.12,79.26,266.97,79.26,265.74z"/>
	<path d="M84.99,260.5h1.74l-1.87,1.99h-1.29L84.99,260.5z M83.57,263.23h1.36V271h-1.36V263.23z"/>
	<path d="M93.76,268.8c0,2-2.01,2.21-3.19,2.21h-2.43v-7.77h1.98c1.54,0,3.19,0.19,3.19,2.12c0,0.89-0.48,1.34-0.97,1.52
		C92.99,267.02,93.76,267.47,93.76,268.8z M90.11,264.36H89.5v2.13h0.59c0.94,0,1.86-0.07,1.86-1.07
		C91.94,264.41,91.02,264.36,90.11,264.36z M92.39,268.73c0-1-0.86-1.12-1.79-1.12h-1.1v2.24h1.07
		C91.51,269.85,92.39,269.72,92.39,268.73z"/>
	<path d="M96.53,263.23h4.69v1.15h-3.33v2.09h2.4v1.14h-2.4v2.23h3.48V271h-4.83V263.23z"/>
	<path d="M105.75,264.38h-2.21v-1.15h5.76v1.15h-2.19V271h-1.36V264.38z"/>
	<path d="M111.81,263.23h4.69v1.15h-3.33v2.09h2.4v1.14h-2.4v2.23h3.48V271h-4.83V263.23z"/>
</g>
<g>
	<path d="M69.93,34.13h-8.16v16.03l4.13,0v-4.78l0-1.1c0,0,5.9,0.32,7.56-1.85c1.24-1.4,1.31-3.62,0.8-5.35
		C73.58,35.13,72.1,34.13,69.93,34.13z M70.39,41.35c-0.97,1.12-3.1,1.11-4.52,1.01l0.01-6.43c0,0,3.67-0.5,4.64,1.14
		C71.09,38.05,71.22,40.26,70.39,41.35z M35.29,52.77c-1.48-0.54-3.6-2.16-4.83-3.64c-1.58-1.78-5.37-6.79-5.37-6.79
		c-1.95-2.47-4.55-6.58-7.13-8.65v16.43h2.3v-8.29c1.62,2.03,3.52,4.63,4.94,6.27c0.63,0.74,2.24,2.46,2.7,2.84
		c2.96,2.84,8.4,4.12,12.94,2.56v-0.16C39.28,53.67,37.27,53.55,35.29,52.77z M21.26,35.09c1.58,1.78,5.37,6.79,5.37,6.79
		c1.95,2.47,4.56,6.58,7.13,8.65V34.1h-2.3v8.29c-1.62-2.03-3.52-4.63-4.94-6.27c-0.63-0.74-2.24-2.46-2.7-2.84
		c-2.96-2.84-8.4-4.12-12.94-2.56v0.16c1.56-0.33,3.57-0.21,5.55,0.57C17.91,32,20.04,33.62,21.26,35.09z M47.23,35.92l0.01-1.79
		H36.08v16.03h11.16l-0.01-1.79c-2.14,0.05-4.82,0.39-7.02,0.17v-5.76c1.78-0.09,3.95-0.06,5.6,0.09v-1.9
		c-1.68,0.21-3.81,0.19-5.6,0.08c0-0.34,0-5.3,0-5.3C42.41,35.54,45.09,35.88,47.23,35.92z M58.77,42.37
		c-1.88-1.61-4.17-2.11-5.79-3.2c-1.13-0.86-0.96-1.97-0.39-2.57c1.36-1.49,4.19-0.79,4.85-0.64c0.83,0.24,1.28,0.5,2.08,0.85v-2.01
		c-3.38-0.97-8.79-1.89-10.92,1.45c-0.78,1.38-0.99,3.87,1.27,5.33c2.28,1.78,6.01,2.63,6.47,4.07c0.29,0.78-0.06,1.54-0.6,2.07
		c-2.02,1.84-5.26,0.69-7.35-0.23l0,1.98c2.26,1,5.13,1.26,7.67,0.72c1.74-0.38,3.7-1.89,4.01-3.76C60.4,44.6,60,43.4,58.77,42.37z
		 M89.55,49.32l-0.5-0.94c-1.08-1.99-1.95-3.65-2.9-5.81c0.1-0.07,0.08-0.04,0.36-0.17c1.51-0.71,2.51-1.99,2.48-4.21
		c-0.07-2.72-2.6-4.07-4.81-4.06h-8.27v16.03l4.15,0v-6.63h2.36c0.79,1.29,2.39,4.97,2.64,5.54l0.49,1.08H90l-0.4-0.75
		C89.58,49.38,89.57,49.35,89.55,49.32z M84.43,40.71c-0.98,1.15-2.99,1.07-4.39,1.06V35.9c0,0,3.55-0.52,4.53,1.16
		C85.07,38,85.13,39.77,84.43,40.71z M137.16,33.89c-1.08-0.01-8.07,0.11-8.1,8.19c0,8.03,6.9,8.35,8.1,8.34
		c1.19,0.01,8.1-0.31,8.08-8.34C145.23,33.99,138.25,33.88,137.16,33.89z M137.19,48.19h-0.06c-0.45,0-3.79,0.14-3.77-6.41
		c0.03-6.08,3.27-5.91,3.81-5.91c0.54,0,3.78-0.17,3.81,5.91C140.99,48.33,137.65,48.19,137.19,48.19z M147.74,48.32L147.74,48.32
		c0.07-0.03,0.33-0.12,0.33-0.52c0-0.33-0.22-0.54-0.66-0.54h-0.99v2.01h0.36v-0.83h0.53c0.33,0,0.41,0.17,0.41,0.54
		c0,0.09,0,0.21,0.05,0.29h0.38c-0.08-0.08-0.11-0.29-0.11-0.53C148.04,48.43,147.86,48.33,147.74,48.32z M147.37,48.18h-0.58v-0.63
		h0.58c0.18,0,0.36,0.05,0.36,0.31C147.72,48.06,147.6,48.18,147.37,48.18z M147.18,46.37c-1.07,0-1.94,0.85-1.94,1.9
		c0,1.06,0.87,1.91,1.94,1.91c1.07,0,1.95-0.85,1.95-1.91C149.12,47.22,148.25,46.37,147.18,46.37z M147.18,49.99
		c-0.96,0-1.75-0.78-1.75-1.72c0-0.95,0.78-1.71,1.75-1.71c0.96,0,1.74,0.77,1.74,1.71C148.92,49.21,148.14,49.99,147.18,49.99z
		 M114.11,42.37c-1.88-1.61-4.17-2.11-5.79-3.2c-1.13-0.86-0.96-1.97-0.38-2.57c1.36-1.49,4.19-0.79,4.85-0.64
		c0.84,0.24,1.28,0.5,2.08,0.85v-2.01c-3.38-0.97-8.79-1.89-10.92,1.45c-0.78,1.38-0.99,3.87,1.27,5.33
		c2.28,1.78,6.01,2.63,6.47,4.07c0.29,0.78-0.06,1.54-0.6,2.07c-2.02,1.84-5.26,0.69-7.35-0.23l0,1.98c2.27,1,5.13,1.26,7.67,0.72
		c1.74-0.38,3.7-1.89,4.01-3.76C115.74,44.6,115.34,43.4,114.11,42.37z M126.76,42.37c-1.88-1.61-4.17-2.11-5.78-3.2
		c-1.14-0.86-0.97-1.97-0.4-2.57c1.36-1.49,4.19-0.79,4.85-0.64c0.84,0.24,1.29,0.5,2.08,0.85v-2.01
		c-3.39-0.97-8.79-1.89-10.92,1.45c-0.79,1.38-1,3.87,1.27,5.33c2.28,1.78,6.02,2.63,6.47,4.07c0.29,0.78-0.04,1.54-0.6,2.07
		c-2.01,1.84-5.25,0.69-7.34-0.23l-0.01,1.98c2.27,1,5.13,1.26,7.68,0.72c1.75-0.38,3.7-1.89,4.02-3.76
		C128.4,44.6,128,43.4,126.76,42.37z M91.37,50.16h11.15v-1.79c-2.15,0.05-4.83,0.39-7.02,0.17v-5.76c1.78-0.09,3.95-0.06,5.61,0.09
		v-1.9c-1.7,0.21-3.82,0.19-5.62,0.08c0-0.34,0-5.3,0-5.3c2.19-0.22,4.88,0.12,7.02,0.16v-1.79H91.37V50.16z"/>
	<g>
		<path d="M56.88,66.5c0,3.64-2.98,3.98-5.2,3.98h-1.65v4.26h-1.76V62.58h3.57C54.57,62.58,56.88,63.22,56.88,66.5z M55.09,66.52
			c0-2.14-1.71-2.46-3.49-2.46h-1.58V69h1.58C53.35,69,55.09,68.64,55.09,66.52z"/>
		<path d="M66.69,62.58h1.76v10.64h5.84v1.52h-7.6V62.58z"/>
		<path d="M88.45,62.39h0.19l5.52,12.35h-1.88l-1.03-2.4h-5.48l-1.03,2.4h-1.82L88.45,62.39z M90.68,70.88l-2.16-5.01l-2.16,5.01
			H90.68z"/>
		<path d="M105.37,66.24v8.5h-1.71V62.39h0.19l8.22,8.71v-8.52h1.71v12.35h-0.19L105.37,66.24z"/>
	</g>
</g>
</svg>
