<?xml version="1.0" encoding="utf-8"?>
<!-- Generator: Adobe Illustrator 25.4.1, SVG Export Plug-In . SVG Version: 6.00 Build 0)  -->
<svg version="1.1" baseProfile="tiny" id="Capa_1" xmlns="http://www.w3.org/2000/svg" xmlns:xlink="http://www.w3.org/1999/xlink"
	 x="0px" y="0px" viewBox="0 0 643.9 316.8" overflow="visible" xml:space="preserve">
<rect x="346.3" y="0" fill="#F8E944" width="297.6" height="316.8"/>
<polygon fill="#F8E944" points="574.6,0 0,0 55.8,316.8 574.6,315.8 "/>
<g>
	<path fill="#222220" d="M544.4,203.6v9.1h-6.5v-26.9h10.8c2.1,0,3.9,0.4,5.5,1.1s2.8,1.8,3.7,3.2s1.3,3,1.3,4.8
		c0,2.6-0.9,4.7-2.8,6.3s-4.5,2.4-7.8,2.4L544.4,203.6L544.4,203.6z M544.4,198.6h4.3c1.3,0,2.2-0.3,2.9-0.9c0.7-0.6,1-1.5,1-2.7
		c0-1.3-0.3-2.3-1-3s-1.6-1.1-2.8-1.1h-4.3L544.4,198.6L544.4,198.6z"/>
	<path fill="#222220" d="M573,205.4l5.4-19.6h7.3l-9.1,26.9h-7.1l-9-26.9h7.2L573,205.4z"/>
	<path fill="#222220" d="M594.1,203.6v9.1h-6.5v-26.9h10.8c2.1,0,3.9,0.4,5.5,1.1s2.8,1.8,3.7,3.2s1.3,3,1.3,4.8
		c0,2.6-0.9,4.7-2.8,6.3c-1.9,1.6-4.5,2.4-7.8,2.4L594.1,203.6L594.1,203.6z M594.1,198.6h4.3c1.3,0,2.2-0.3,2.9-0.9s1-1.5,1-2.7
		c0-1.3-0.3-2.3-1-3s-1.6-1.1-2.8-1.1h-4.3L594.1,198.6L594.1,198.6z"/>
</g>
<g>
	<path fill="#222220" d="M510.1,240.2h-22.2c0.2,6.2,1.9,10.8,5.1,13.8c3.1,3,8.4,4.5,15.6,4.5c4.7,0,8.9-0.7,12.5-2.1l3.1,19.2
		c-6.3,1.4-12.5,2.1-18.7,2.1c-12.8,0-23-3.3-30.6-10c-7.6-6.6-11.6-15.8-12-27.5h-11.7v-11.4h11.7v-8.6h-11.7v-11.4h12
		c0.9-11.8,5.3-20.9,13.2-27.5c7.9-6.6,18.4-9.9,31.4-9.9c5,0,10.5,0.7,16.5,2.2l-3.1,19.2c-3.7-1.5-7.7-2.2-11.9-2.2
		c-6.5,0-11.5,1.5-15,4.4c-3.5,3-5.5,7.6-6.1,13.8h22v11.4H488v8.6h22.2L510.1,240.2L510.1,240.2z"/>
</g>
<g>
	<path fill="#222220" d="M433.3,87.3l-10.5-5.7c3.9-6.8,6-13.5,6-20.1V49.2h17.5v11.6c0,4.4-1.3,9.1-3.8,14.1
		C439.9,79.9,436.9,84,433.3,87.3z"/>
	<path fill="#222220" d="M506.9,118.4c-5.2,4.7-11,7-17.4,7c-9.4,0-16.8-3.2-22.3-9.5s-8.2-14.8-8.2-25.5c0-6.6,1.5-12.8,4.6-18.5
		s7.4-10.2,13-13.5s11.7-5,18.5-5s13,1.7,18.5,5.2c5.5,3.4,9.8,8.3,12.9,14.6c3.1,6.3,4.7,13.5,4.8,21.7v9.2
		c0,11.4-2.2,21.3-6.7,29.7s-10.9,14.8-19.2,19.3s-18,6.8-29,6.8h-1.5v-19.2l4.5-0.1C495.9,139.8,505.1,132.4,506.9,118.4z
		 M496.1,108.1c5.2,0,9-2.2,11.2-6.8v-10c0-6.6-1.1-11.5-3.3-14.7c-2.2-3.2-5.2-4.8-9-4.8c-3.4,0-6.2,1.8-8.5,5.4s-3.4,8-3.4,13.1
		c0,5.4,1.2,9.7,3.5,12.9S492,108.1,496.1,108.1z"/>
	<path fill="#222220" d="M591.3,118.4c-5.2,4.7-11,7-17.3,7c-9.4,0-16.8-3.2-22.3-9.5s-8.2-14.8-8.2-25.5c0-6.6,1.5-12.8,4.6-18.5
		s7.4-10.2,13-13.5s11.7-5,18.5-5s13,1.7,18.5,5.2c5.5,3.4,9.8,8.3,12.9,14.6s4.7,13.5,4.8,21.7v9.2c0,11.4-2.2,21.3-6.7,29.7
		s-10.9,14.8-19.2,19.3s-18,6.8-29,6.8h-1.5v-19.2l4.5-0.1C580.3,139.8,589.4,132.4,591.3,118.4z M580.4,108.1c5.2,0,9-2.2,11.2-6.8
		v-10c0-6.6-1.1-11.5-3.3-14.7s-5.2-4.8-9-4.8c-3.4,0-6.2,1.8-8.5,5.4s-3.4,8-3.4,13.1c0,5.4,1.2,9.7,3.5,12.9
		S576.4,108.1,580.4,108.1z"/>
</g>
<g>
	<path fill="#222220" d="M180.3,277.7H128V111.2l-51.4,15V86.6l98.9-34.2h4.8V277.7z"/>
	<path fill="#222220" d="M385.9,189.7h22.9v40.2h-22.9v47.8h-52.1v-47.8h-87.1l-3.1-31.9l90.2-145.1v-0.5h52.1V189.7z M293.3,189.7
		h40.5v-69.3l-3.2,5.3L293.3,189.7z"/>
</g>
</svg>
