<?xml version="1.0" encoding="utf-8"?>
<!-- Generator: Adobe Illustrator 25.4.1, SVG Export Plug-In . SVG Version: 6.00 Build 0)  -->
<svg version="1.1" baseProfile="tiny" id="Capa_1" xmlns="http://www.w3.org/2000/svg" xmlns:xlink="http://www.w3.org/1999/xlink"
	 x="0px" y="0px" viewBox="0 0 574.6 316.8" overflow="visible" xml:space="preserve">
<polygon fill="#F8E944" points="574.6,0 0,0 55.8,316.8 574.6,315.8 "/>
<g>
	<path fill="#222220" d="M452.1,203.6v9.1h-6.5v-26.9h10.8c2.1,0,3.9,0.4,5.5,1.1s2.8,1.8,3.7,3.2c0.9,1.4,1.3,3,1.3,4.8
		c0,2.6-0.9,4.7-2.8,6.3s-4.5,2.4-7.8,2.4L452.1,203.6L452.1,203.6z M452.1,198.6h4.3c1.3,0,2.2-0.3,2.9-0.9s1-1.5,1-2.7
		c0-1.3-0.3-2.3-1-3s-1.6-1.1-2.8-1.1h-4.3L452.1,198.6L452.1,198.6z"/>
	<path fill="#222220" d="M480.7,205.4l5.4-19.6h7.3l-9.1,26.9h-7.1l-9-26.9h7.2L480.7,205.4z"/>
	<path fill="#222220" d="M501.8,203.6v9.1h-6.5v-26.9h10.8c2.1,0,3.9,0.4,5.5,1.1c1.6,0.7,2.8,1.8,3.7,3.2s1.3,3,1.3,4.8
		c0,2.6-0.9,4.7-2.8,6.3c-1.9,1.6-4.5,2.4-7.8,2.4L501.8,203.6L501.8,203.6z M501.8,198.6h4.3c1.3,0,2.2-0.3,2.9-0.9s1-1.5,1-2.7
		c0-1.3-0.3-2.3-1-3s-1.6-1.1-2.8-1.1h-4.3L501.8,198.6L501.8,198.6z"/>
</g>
<g>
	<path fill="#222220" d="M417.8,240.2h-22.2c0.2,6.2,1.9,10.8,5.1,13.8c3.1,3,8.4,4.5,15.6,4.5c4.7,0,8.9-0.7,12.5-2.1l3.1,19.2
		c-6.3,1.4-12.5,2.1-18.7,2.1c-12.8,0-23-3.3-30.6-10c-7.6-6.6-11.6-15.8-12-27.5h-11.7v-11.4h11.7v-8.6h-11.7v-11.4h12
		c0.9-11.8,5.3-20.9,13.2-27.5c7.9-6.6,18.4-9.9,31.4-9.9c5,0,10.5,0.7,16.5,2.2l-3.1,19.2c-3.7-1.5-7.7-2.2-11.9-2.2
		c-6.5,0-11.5,1.5-15,4.4c-3.5,3-5.5,7.6-6.1,13.8h22v11.4h-22.2v8.6h22.2L417.8,240.2L417.8,240.2z"/>
</g>
<g>
	<path fill="#222220" d="M341,87.3l-10.5-5.7c3.9-6.8,6-13.5,6-20.1V49.2H354v11.6c0,4.4-1.3,9.1-3.8,14.1
		C347.6,79.9,344.6,84,341,87.3z"/>
	<path fill="#222220" d="M414.6,118.4c-5.2,4.7-11,7-17.4,7c-9.4,0-16.8-3.2-22.3-9.5s-8.2-14.8-8.2-25.5c0-6.6,1.5-12.8,4.6-18.5
		s7.4-10.2,13-13.5s11.7-5,18.5-5s13,1.7,18.5,5.2c5.5,3.4,9.8,8.3,12.9,14.6s4.7,13.5,4.8,21.7v9.2c0,11.4-2.2,21.3-6.7,29.7
		s-10.9,14.8-19.2,19.3s-18,6.8-29,6.8h-1.5v-19.2l4.5-0.1C403.6,139.8,412.8,132.4,414.6,118.4z M403.8,108.1c5.2,0,9-2.2,11.2-6.8
		v-10c0-6.6-1.1-11.5-3.3-14.7c-2.2-3.2-5.2-4.8-9-4.8c-3.4,0-6.2,1.8-8.5,5.4s-3.4,8-3.4,13.1c0,5.4,1.2,9.7,3.5,12.9
		S399.7,108.1,403.8,108.1z"/>
	<path fill="#222220" d="M499,118.4c-5.2,4.7-11,7-17.3,7c-9.4,0-16.8-3.2-22.3-9.5s-8.2-14.8-8.2-25.5c0-6.6,1.5-12.8,4.6-18.5
		s7.4-10.2,13-13.5s11.7-5,18.5-5s13,1.7,18.5,5.2c5.5,3.4,9.8,8.3,12.9,14.6s4.7,13.5,4.8,21.7v9.2c0,11.4-2.2,21.3-6.7,29.7
		s-10.9,14.8-19.2,19.3s-18,6.8-29,6.8h-1.5v-19.2l4.5-0.1C488,139.8,497.1,132.4,499,118.4z M488.1,108.1c5.2,0,9-2.2,11.2-6.8v-10
		c0-6.6-1.1-11.5-3.3-14.7c-2.2-3.2-5.2-4.8-9-4.8c-3.4,0-6.2,1.8-8.5,5.4s-3.4,8-3.4,13.1c0,5.4,1.2,9.7,3.5,12.9
		C480.9,106.4,484.1,108.1,488.1,108.1z"/>
</g>
<g>
	<path fill="#222220" d="M183.8,140.9h25c19.8,0,29.8-9.7,29.8-29.1c0-7.6-2.4-13.7-7.1-18.5c-4.7-4.8-11.4-7.2-20-7.2
		c-7,0-13.1,2-18.3,6.1c-5.2,4.1-7.8,9.2-7.8,15.3h-53.1c0-12.1,3.4-22.8,10.1-32.3c6.7-9.4,16-16.8,27.9-22.1c11.9-5.3,25-8,39.3-8
		c25.5,0,45.6,5.8,60.2,17.5c14.6,11.7,21.9,27.7,21.9,48c0,9.9-3,19.2-9.1,27.9c-6,8.8-14.8,15.9-26.4,21.3
		c12.2,4.4,21.7,11.1,28.7,20.1c6.9,9,10.4,20.1,10.4,33.3c0,20.5-7.9,36.8-23.6,49.1c-15.7,12.3-36.4,18.4-62,18.4
		c-15,0-28.9-2.9-41.8-8.6c-12.9-5.7-22.6-13.6-29.2-23.8c-6.6-10.1-9.9-21.7-9.9-34.6H182c0,7,2.8,13.1,8.5,18.3
		c5.7,5.1,12.6,7.7,20.9,7.7c9.3,0,16.8-2.6,22.4-7.8c5.6-5.2,8.3-11.8,8.3-19.9c0-11.5-2.9-19.7-8.7-24.6
		c-5.8-4.8-13.8-7.2-23.9-7.2h-25.8V140.9z"/>
</g>
</svg>
