<?xml version="1.0" encoding="utf-8"?>
<!-- Generator: Adobe Illustrator 25.4.1, SVG Export Plug-In . SVG Version: 6.00 Build 0)  -->
<svg version="1.1" baseProfile="tiny" id="Capa_1" xmlns="http://www.w3.org/2000/svg" xmlns:xlink="http://www.w3.org/1999/xlink"
	 x="0px" y="0px" viewBox="0 0 329.5 165.4" overflow="visible" xml:space="preserve">
<g>
	<path fill="#3F5935" d="M69.6,50.3c0.2,0,2.5-0.4,3.3-0.6c5-0.9,16.5-2.7,18,6c1.2,7.1-10.6,10.4-13.8,11.9L65,75.3
		c-2.1,1.3-3.9,3.4-4.5,5.9l-3.7,12.1c-0.2,0.3-0.1,0.7,0,1c0.1,0.5,0.5,1.4,0.9,1.3l1.5-0.3l19.3-6.1c0,0,0.6-0.1,0.8-0.1
		s0.8-0.1,0.8-0.1c0.2,0,0.5,0.2,0.5,0.2l0.3,1.6c-0.2,0-0.4,0.3-0.3,0.5c0,0.2,0.3,0.4,0.7,0.4c-0.1,0.5-0.8,0.4-1,0.7l0.5,0.2
		c0,0-0.1,0.5-0.3,0.8c0,0,0.3,0.7,0.4,0.9l-0.8,0.1l0.7,0.4l-0.4,0.3l0.5,0.2c0.2,0,0.3,0.2,0.3,0.2s0,0-0.2,0
		c-0.2,0.3-0.9,0.9-1.3,1l0.8,0.8c-1,0.2-0.6,1.3-1.2,1.9c-2.8,0-11.5,1.8-12.6,4.9l1.2-0.2l-9.5,4.6c-2.5,1.4-6.4,3.8-8.1,4.8
		l1.2-0.2l18.6-8.6c1.6-0.5,3.2-1.1,4.8-1.8l-0.4,0.1c-2.1,0.4-4.1,1.2-6.2,1.6h-0.2l0.4-0.3c0.8-0.1,3.8-1.6,4.4-1.7l-0.8,0.1
		c1.5-1,3.9-2.1,5.6-2.4c0.2,0,0.6-0.1,0.9,0.1c-1.4,0.5-0.4,1.3-2,1.8c0.1,0.5,0,1.2-0.4,1.5c-2.5,1.9-4.2,3.9-6.9,5.8L49,123.1
		c-3.2,2.3-4.3,23.3-4.4,28.7c0.3,0.7,0.6,1.1,1.2,1c2.1-0.4,4.1-2.2,5.4-3.6l28.9-30.8l0.8-0.4c0.4,0.9,0.7,1.3,1,2.2l0.4-0.1
		c0.1,0.5-0.6,1.3-0.7,1.8h0.2c0,0.2-0.1,0.7-0.2,1l-0.5,0.8l0.4-0.1c0.1,0.5-0.4,1.3-0.6,1.3l-20.8,22.8h0.2l1.5-1.2l15-16
		c0.5-0.6,1.2-1.4,2.1-1.6h0.2c-0.2,0.3-1.2,1.4-1.4,1.7s-0.3,0.6-0.3,0.6c1.2-0.2,2-2,3.2-2.7h0.2l-0.4,0.3c-0.9,1.1-5,5.7-5.9,6.6
		c-0.2,0.3-0.9,1.1-0.8,1.4c1.4-0.7,2.1-2.6,3.5-3.3c0,0,0,0,0.2,0h-0.2l-7.5,8.6c-1.6,3-4.8,4.5-6.2,7.4c0.8-0.4,2.1-1.3,2.5-1.9
		l9.2-9.6c0,0,0.2,0,0.4-0.1v-0.2v0.2c-0.2,0.3-0.5,0.6-0.9,1.1c0.2,0,0.2,0,0.3,0.2c0,0,0,0.2-0.2,0.3v-0.2h-0.2h-0.2l0.3,0.2
		l-0.3,0.5c-2.2,3.5-8.4,7.1-10.4,11.5c0.2,0,0.2,0,0.2,0c2.1-0.4,3.7-3.6,5.4-4.8l5.9-6.4h0.2l-1,1.6l0.8-0.1l-3.6,3.8l0.1-0.7
		l-3.8,3.8l-0.3,0.5h0.2l0.7-0.6c0-0.2,0-0.2,0-0.2s0.2,0,0.3,0.2h0.2c-0.9,2.1-2.6,3.6-4,5.1l0.6-0.1l-0.5,0.8c0,0,0,0,0,0.2
		l-0.5,0.6c0,0,0,0,0,0.2c0.2,0,0.4-0.3,0.6-0.3c0,0,0,0,0.2,0c-1.2,2.9-7.2,4.4-7.8,6.9l0.8-0.1c-0.5,2.3-7,2.9-9.1,3.3
		c-8.7,1.5-19-4.4-20.9-15c-1.9-10.8,3.1-22.6,1.5-31.8c-0.2-1.4-1.9-2.3-2.2-4c0-0.2-0.1-0.7-0.1-0.7l0.3-0.5l2.8-2.4l0.5-0.8
		l2.6-14.5l0.2-0.3c0-1,0.9-4.8,1-5.5v-0.2c0-0.2-0.2-0.2-0.5-0.2c-1.5,0.3-2.7,1.5-4.4,1.7c-5.8,1-10.7-3.7-11.8-10
		c-0.3-1.9-0.8-4.7,0.6-6.2l0.5,0.2c0.2,0,0.6-0.3,0.8-0.4l4.5-3.5L40.8,62l17-7.1L69.6,50.3z M33.3,145.9c-0.2-0.2,0,1.5,0.2,1.2
		C33.5,146.9,33.4,146.1,33.3,145.9z M33.3,137l-0.1,6.6l0.3,1.9v-6.3c-0.1-0.5,0.8-10.1,1.2-14c-0.1-0.5,0.2-2.5,0.3-3l-0.1-0.5
		l-0.2,0.3L33.3,137z M33.9,137.1v0.2C34.2,137.3,34.1,137,33.9,137.1z M34.1,136.6c-0.3-0.2-0.1,0.5,0,0.2V136.6z M34.2,136.1
		c0.1-0.7,0.2-1,0.2-1.5c0-0.2-0.1-0.5-0.1-0.5c-0.3,0.8-0.2,1-0.1,1.7L34.2,136.1z M36.7,148.2c-0.8-8.1,0.3-16.8,1.5-24.5
		l-0.1-0.7l-0.2,0.3c-0.2,0.3-1,7.5-1.4,10.2c-0.2,3.4-0.5,7.9-0.3,11.7c0.1,0.7,0.3,2.6,0.5,2.6V148.2z M34.2,133.9l0.5-3.2
		l-0.1-0.7c-0.5,1-0.6,2.5-0.4,3.7V133.9z M34.4,129l0.2,0.9l1-7.9l-0.2,0.3L34.4,129z M38.4,146.7c-0.2-0.2,0.1,1.7,0.2,1.4
		C38.6,147.9,38.5,146.9,38.4,146.7z M38.4,145.3c-0.2,0,0,1,0.2,0.9C38.5,146,38.4,145.5,38.4,145.3z M38.4,144
		c-0.2-0.2-0.2,0.3,0,0.2V144z M37,136.1l0.1,0.5C37.3,136.5,37.2,136,37,136.1z M38.1,142.6l0.2,0.9
		C38.5,143.3,38.4,142.8,38.1,142.6z M37.1,135.8v0.2C37.4,136,37.3,135.7,37.1,135.8z M37.2,134.8l0.1,0.5
		C37.5,135.2,37.4,135,37.2,134.8z M37.3,134.5c-0.2,0-0.2,0.3,0,0.2C37.3,134.5,37.3,134.5,37.3,134.5z M38.3,140.2
		c-0.2,0-0.2,0.3,0,0.2V140.2z M39.6,147.2c-0.2,0-0.1,0.7,0.1,0.5L39.6,147.2z M38.4,139.2c-0.2,0-0.1,0.5,0.1,0.5
		C38.4,139.4,38.4,139.2,38.4,139.2z M39.6,146c-0.3-0.2,0,1,0.1,0.7L39.6,146z M37.5,133c-0.2,0-0.2,0.3,0,0.2V133z M38.5,138.5
		c-0.2,0-0.2,0.3,0,0.2C38.5,138.7,38.5,138.7,38.5,138.5z M39.5,144.3c-0.2-0.2,0,1.2,0.2,0.9C39.7,145.3,39.5,144.6,39.5,144.3z
		 M37.4,132.3v0.2C37.6,132.5,37.6,132.3,37.4,132.3z M38.2,137.3l0.1,0.5C38.5,137.7,38.5,137.5,38.2,137.3z M39.5,144.1
		c0.2-0.3,0.1-1.7,0.1-2c0,0,0-0.2-0.1-0.5v-0.2c-0.1,0.7-0.2,1.5,0,2.2V144.1z M37.5,131.8v0.2C37.7,131.8,37.7,131.8,37.5,131.8z
		 M38.4,136.8l0.1,0.5C38.6,137,38.6,136.7,38.4,136.8z M40,138.4c0.1,1.7-0.1,5.4-0.1,5.4l0.1,0.7c0.6-4-0.3-10.1,1.1-14.3l0.1,0.7
		l-0.6,12.5c0.1,0.7,0.2,1.2,0.3,1.9c0,0,0.1,0.5,0.1,0.7c0-1,0.3-2,0-2.7c0-6.3,0.5-12.9,1.3-19.2l-0.1-0.7c-0.4,1.3-0.4,2.7-0.8,4
		l-0.1-0.5l0.5-3.2l-0.1-0.5c-0.2,0.3-0.3,0.6-0.3,0.8C41,128.3,40.2,133.8,40,138.4z M37.6,131.1v0.2
		C37.8,131.3,37.8,131.1,37.6,131.1z M40.9,148.7l-0.3-0.2v0.2c0,0,0.2,0,0.3,0.2C40.9,148.7,40.9,148.7,40.9,148.7z M37.7,130.6
		C37.7,130.3,37.8,130.8,37.7,130.6C37.9,130.6,37.9,130.6,37.7,130.6z M39.5,140.5l0.1,0.5C39.7,140.7,39.7,140.4,39.5,140.5z
		 M37.8,130.1c-0.2,0-0.2,0.3,0,0.2V130.1z M39.5,139.7c-0.2,0-0.1,0.5,0.1,0.5C39.8,140.2,39.7,139.7,39.5,139.7z M41.2,148.9
		c-0.2,0-0.1,0.5,0.1,0.5C41.4,149.3,41.4,148.9,41.2,148.9z M38.7,135c0.2-0.3,0.2-0.3,0.1-0.5c0-0.2,0-0.2,0-0.2
		c-0.2,0.3-0.2,0.3-0.1,0.5V135z M37.9,129.3c-0.2,0-0.2,0.3,0,0.2V129.3z M39.4,137.8c-0.2,0-0.1,0.5,0.1,0.5
		C39.5,138,39.4,137.8,39.4,137.8z M39.6,138.7c-0.2,0-0.1,0.5,0.1,0.5C39.9,139.2,39.8,138.7,39.6,138.7z M40.9,146
		c-0.2,0-0.2,0.3,0,0.2C41.1,146.2,41.1,146,40.9,146z M41.2,148.2c-0.2,0-0.2,0.3,0,0.2V148.2z M41.8,150l-0.3-0.4v0.2
		c0,0.2,0.1,0.5,0.3,0.4C41.8,150.2,41.8,150.2,41.8,150z M38.8,133.3c-0.2,0-0.1,0.5,0.1,0.5L38.8,133.3z M39.5,137.1
		c-0.2,0-0.1,0.5,0.1,0.5C39.6,137.5,39.5,137.3,39.5,137.1z M41.2,146.5c-0.2,0-0.2,0.3,0,0.2V146.5z M41.8,150.2
		c-0.2,0-0.1,0.5,0.1,0.5L41.8,150.2z M38.8,132.8v0.2C39,133,39,132.8,38.8,132.8z M39.4,136.4l0.1,0.7
		C39.7,136.8,39.6,136.3,39.4,136.4z M38.8,131.9c-0.2,0-0.1,0.5,0.1,0.5C39.1,132.3,39,131.8,38.8,131.9z M39.5,135.6l0.1,0.5
		C39.8,136,39.7,135.8,39.5,135.6z M38.1,126.6c-0.2,0-0.1,0.5,0.1,0.5C38.4,127.1,38.3,126.6,38.1,126.6z M41.7,146.9l0.1-0.5
		c0.2-7.6,0.7-15.4,2-22.7l-0.2-0.2l-0.2,0.3c0,0.2-0.2,1.3-0.2,1.3l-1.4,13.8c0,0.2-0.3,4.7-0.2,6.3c0,0.2,0,1,0,1.2v0.2
		L41.7,146.9z M39,131.6v0.2C39.2,131.5,39.2,131.5,39,131.6z M39.7,135.6c0-0.2,0.1-0.7,0.1-0.7v-0.2c0,0,0,0,0-0.2
		c-0.2,0.3-0.1,0.5-0.1,0.7C39.6,135.3,39.6,135.3,39.7,135.6z M39,130.6c-0.2,0-0.1,0.5,0.1,0.5C39.1,131.1,39,130.8,39,130.6z
		 M39.3,129.6c-0.2,0-0.1,0.5,0.1,0.5C39.3,129.8,39.3,129.6,39.3,129.6z M39.2,129.1v0.2C39.4,129.3,39.4,129.1,39.2,129.1z
		 M39.2,128.1c-0.2,0-0.1,0.5,0.1,0.5C39.5,128.6,39.4,128.1,39.2,128.1z M40.8,123.5c0,0,0,0,0-0.2l0.1,0.5
		c-0.2,0.3-0.6,5.2-0.9,7.2l-0.1,0.7v0.2C40.8,131,41,125.1,40.8,123.5z M39.7,124.9c-0.2,0-0.1,0.5,0.1,0.5L39.7,124.9z
		 M40.1,123.6c-0.2,0-0.1,0.5,0.1,0.5C40.4,124.1,40.3,123.6,40.1,123.6z M40.3,123.3c-0.2,0-0.2,0.3,0,0.2
		C40.5,123.5,40.5,123.3,40.3,123.3z M41.3,129v0.2C41.1,129.3,41.1,129,41.3,129z M41.4,128.5c0,0,0,0,0,0.2
		C41.2,128.8,41.2,128.5,41.4,128.5z M41.5,127.7v0.2C41.3,128,41.3,127.8,41.5,127.7z M37.5,105.2v0.2V105.2z M37.7,104.9
		c0.1-0.5,0.3-0.8,0.2-1.3c-0.2,0.3-0.3,0.5-0.2,1V104.9z M38,105.3v0.2c0.8-0.6,0.8-2.8,1-3.8v-0.2l-0.2,0.3L38,105.3z M38,103.1
		c-0.2,0-0.2,0.3,0,0.2V103.1z M38.2,102.9c0-0.2,0-0.2-0.1-0.5c0-0.2,0-0.2,0-0.2c0,0.2,0,0.2,0.1,0.5V102.9z M38.2,101.6v0.2
		C38.4,101.8,38.4,101.6,38.2,101.6z M38.3,101.4c0.2-0.3,0.2-1,0.4-1.3v-0.2v-0.2c-0.2,0.3-0.4,1.3-0.4,1.3v0.2V101.4z M38.8,99.3
		c0.2-0.3,0.1-0.5,0-1c0,0,0,0,0-0.2c-0.1,0.5-0.3,0.8-0.2,1.3C38.6,99.4,38.6,99.4,38.8,99.3z M39.1,100.8c-0.2,0-0.1,0.5,0.1,0.5
		L39.1,100.8z M33.8,70.9c0,0.2,0.5,0.2,0.4-0.1C34.3,70.8,34,70.9,33.8,70.9z M39.9,104c0.2-0.3,0.1-0.5,0.1-0.7
		c-0.2,0.3-0.2,0.3-0.1,0.5V104z M39.1,98.1c0.1-0.5,0.3-0.8,0.2-1.3c0,0,0,0,0-0.2c-0.1,0.5-0.3,0.8-0.2,1.3
		C39,97.9,39,97.9,39.1,98.1z M40.1,102.8c-0.2,0-0.2,0.3,0,0.2V102.8z M34.8,70.5c3.9-1.9,7.9-3.8,11.6-5.9l15.1-5.8
		c1.4-0.5,2.8-1,4.3-1.2c0.2,0,0.6-0.1,0.8-0.1l-14.7,5.3l-2.2,1.1l0.8-0.1l19.8-6.9l8.3-1.5c2.1-0.4,3.9,0.3,5.8-0.1
		c0.2,0,0.2,0,0.2,0c-1.3-1.2-5.3-1-6.8-0.8l-7.9,1.4c-11.4,2-25.2,7.8-34.8,14.4l-0.8,0.4L34.8,70.5z M40.2,102
		c-0.2,0-0.2,0.3,0,0.2V102z M40.3,101.7c-0.2,0-0.2,0.3,0,0.2C40.3,101.7,40.3,101.7,40.3,101.7z M39.4,96.6c0.1-0.5,0.1-0.7,0-1.2
		c-0.2,0.3-0.1,0.5,0,1V96.6z M40.3,101.3v0.2C40.5,101.5,40.5,101.2,40.3,101.3z M41.2,104.3c0,0,0.3-1,0.4-1.3
		c-0.1-0.5,0.4-2.7,0.5-3.2h-0.2c0,0-0.4,1.3-0.3,1.8c-0.3,0.5-0.6,2.5-0.6,2.5v0.2H41.2z M40.5,100c-0.2,0-0.1,0.5,0.1,0.5
		C40.8,100.5,40.7,100,40.5,100z M39.6,95.1c0.1-0.7,0.6-1.6,0.5-2.3c0,0,0,0,0-0.2c-0.3,0.8-0.6,1.6-0.5,2.3V95.1z M40.7,100
		c0.2-0.3,0.1-0.5,0.1-0.7c0,0,0,0,0-0.2c-0.2,0.3-0.1,0.5-0.1,0.7V100z M40,92.6c0.2-0.3,0.1-0.5,0.1-0.5s0,0,0-0.2
		c-0.2,0-0.2,0.3-0.1,0.5C40,92.4,40,92.4,40,92.6z M41.1,97.3c0.2-0.3,0.5-1.1,0.5-1.1V96c-0.2,0.3-0.5,0.8-0.5,1
		C41.1,97.3,41.1,97.3,41.1,97.3z M40.2,91.1c-0.2,0-0.1,0.5,0.1,0.5C40.5,91.5,40.4,91.1,40.2,91.1z M40.3,90.8
		c-0.2,0-0.2,0.3,0,0.2C40.3,90.8,40.3,90.8,40.3,90.8z M37.3,72.5h0.2C37.3,72.2,37.3,72.2,37.3,72.5z M40.6,89.8
		c-0.2,0-0.2,0.3,0,0.2V89.8z M40.5,89.3l0.1,0.5C40.8,89.8,40.7,89.3,40.5,89.3z M40.6,88.6c-0.2,0-0.1,0.5,0.1,0.5
		S40.8,88.6,40.6,88.6z M37.7,72.1h0.2C37.9,71.9,37.7,71.9,37.7,72.1z M41,87.3c-0.2,0-0.1,0.5,0.1,0.5
		C41.3,87.8,41.2,87.3,41,87.3z M43.9,102.3c-0.2,0-0.2,0.3,0,0.2C44.1,102.5,44.1,102.3,43.9,102.3z M38.5,71.8
		c0,0.2,0.3,0.2,0.2,0C38.5,71.8,38.5,71.8,38.5,71.8z M44,102.1c-0.2,0-0.2,0.3,0,0.2V102.1z M44,101.8c0.2,0,0.2-0.3,0.1-0.5
		c-0.2,0-0.2,0-0.2,0.3L44,101.8z M38.9,71.5c0,0.2,0.3,0.2,0.2,0H38.9z M44.3,102.5c0.5-0.6,0.8-1.8,0.6-2.5c0,0-0.2,0-0.2-0.2
		l-0.4,2.5L44.3,102.5z M44.2,100.6c-0.2,0-0.1,0.5,0.1,0.5C44.5,101,44.4,100.5,44.2,100.6z M44.3,100.1c-0.2,0-0.2,0.3,0,0.2
		V100.1z M44.5,99.8c-0.2,0-0.2,0.3,0,0.2S44.7,99.8,44.5,99.8z M44.6,99.3c0.2,0,0.2-0.3,0.1-0.5l-0.2-0.2c0,0.2,0.1,0.5,0.1,0.5
		C44.6,99.3,44.6,99.3,44.6,99.3z M39.9,71l0.4-0.1C40.2,70.7,40,70.8,39.9,71z M44.5,97.1c0.4-0.3,0.3-0.8,0.2-1c0,0,0-0.2-0.1-0.5
		c0,0.2,0,1-0.2,1.3C44.4,96.9,44.4,96.9,44.5,97.1z M44.7,98.3C44.7,98.3,44.7,98.6,44.7,98.3C44.9,98.3,44.9,98.3,44.7,98.3z
		 M44.9,99.5v0.2C45.1,99.5,45.1,99.5,44.9,99.5z M45,99.2c0.4-1.5,0.8-2.8,1-4.3h-0.2L45,98.7V99.2z M44.8,97.8V98
		C45,98,45,97.8,44.8,97.8z M45,96.8c-0.2,0-0.2,0.3,0,0.2C45,96.8,45,96.8,45,96.8z M44.8,95.6c0.2-0.3,0.2-0.3,0.1-0.5v-0.2
		l-0.1,0.5V95.6z M45,94.4c-0.2,0-0.2,0.3,0,0.2C45.1,94.6,45.1,94.6,45,94.4z M45.3,95.5c-0.2,0-0.2,0.3,0,0.2V95.5z M45,94.1v0.2
		C45.2,94.1,45.2,94.1,45,94.1z M46.3,100.2V100c0,0.2-0.1,0.7,0,1C46.4,100.9,46.3,100.4,46.3,100.2z M41,70.3h0.2
		C41.2,70.1,41,70.1,41,70.3z M45.2,93.9l0.4-1.3l-0.2-0.2c-0.2,0.3-0.3,0.8-0.2,1.3V93.9z M45.3,94.8V95
		C45.6,95,45.5,94.8,45.3,94.8z M48.9,113.8c0,0.2,0.3,0.2,0.2,0H48.9z M42.7,73.9c-0.2,0-0.1,0.5,0.1,0.5
		C43,74.4,42.9,73.9,42.7,73.9z M42,69.7c0,0.2,0.5,0.2,0.4-0.1C42.4,69.6,42.2,69.7,42,69.7z M49.7,113.4h0.2
		C49.9,113.2,49.7,113.2,49.7,113.4z M55.6,66.6l13.5-4.8c2-0.6,5.2-1.2,7.4-1.6c1.3-0.2,2.5-0.7,3.8-0.4c-7.9,1.2-14.4,3.3-21.9,6
		c-1.8,0.6-6,2.3-6,2.5v0.2c1.5-0.3,2.6-1.2,3.8-1.4c0.2,0,0.6-0.1,0.6-0.1c-1.4,0.7-7.7,3.5-8.9,4c-1.2,0.7-4.3,2.2-4.5,2.5
		l-0.5,0.6l16.5-7.5h0.2l12.8-4c2.9-0.5,5.9-1.5,8.9-2c0.2,0,1.5-0.3,1.7-0.3s0.7,0.1,0.9,0.1h0.2c-0.5-0.2-0.7-0.4-0.8-0.8
		c1.5-0.3,2.8-0.2,4.4-0.5l-0.1-0.5h-0.2c-3.1,0.6-6.4,0.4-9.7,1c-0.4,0.1-2.1,0.4-2.1,0.4l-14.7,4.3c-0.2,0-4,1.4-5.4,2.2
		c-0.2,0-0.6,0.3-0.8,0.4L55.6,66.6z M41.9,64.1c0,0.2,0.2,0.2,0.2,0C41.9,64.1,41.9,64.1,41.9,64.1z M43.6,72.6
		c-0.2,0-0.1,0.5,0.1,0.5L43.6,72.6z M43.1,69c-0.2,0-0.1,0.5,0.1,0.5C43.4,69.4,43.4,69,43.1,69z M42.2,63.8c0,0.2,0.2,0.2,0.2,0
		H42.2z M43.4,69c0,0.2,0.5,0.2,0.4-0.1L43.4,69z M43.8,70.3H44C44,70.1,43.8,70.1,43.8,70.3z M43,63.4c-0.2,0-0.2,0.3,0,0.2
		C43.3,63.6,43.2,63.4,43,63.4z M44,68.9c-0.2,0,0.6-0.1,0.4-0.1C44.3,68.5,43.9,68.6,44,68.9z M44.8,72.1c-0.2,0.3,0.2,0.2,0.2,0
		H44.8z M44.6,68.5l0.4-0.1C44.7,68.2,44.5,68.3,44.6,68.5z M45.1,71.3h0.2C45.2,71.1,45,71.1,45.1,71.3z M45.3,71.8
		c0,0.2,0.3,0.2,0.2,0H45.3z M45.7,71.5c-0.2,0.3,0.7,0.1,0.6-0.1C46.1,71.4,45.7,71.5,45.7,71.5z M45.8,70.7
		c-0.2,0-0.1,0.5,0.1,0.5C46.1,71.1,46,70.7,45.8,70.7z M45.6,68.1h0.2c0,0,0.4-0.3,0.6-0.3c-0.2,0-0.4,0.1-0.4,0.1
		c-0.2,0-0.4,0.1-0.6,0.3L45.6,68.1z M59.6,147.6c-0.2,0-0.1,0.5,0.1,0.5C59.9,148,59.8,147.6,59.6,147.6z M46,70.7l0.4-0.1
		C46.4,70.4,46,70.4,46,70.7z M59.9,148.5c-0.2,0-0.1,0.5,0.1,0.5C60.2,148.9,60.2,148.5,59.9,148.5z M60.1,148.2
		c-0.2,0-0.1,0.5,0.1,0.5C60.4,148.7,60.3,148.2,60.1,148.2z M46.5,71.1c0,0.2,0.2,0.2,0.2,0H46.5z M52.7,104.9h0.2
		C52.6,104.7,52.6,104.7,52.7,104.9z M60.5,148.1c0.2,0,0.6-0.3,0.7-0.6H61c-0.2,0-0.5,0.6-0.7,0.6
		C60.3,148.2,60.3,148.2,60.5,148.1z M46.8,70.3c-0.2,0.3,0.2,0.2,0.2,0H46.8z M46.5,67.2c-0.2,0-0.1,0.5,0.1,0.5
		C46.8,67.6,46.7,67.2,46.5,67.2z M47.1,71h0.2C47.3,70.7,47.1,70.7,47.1,71z M47.2,70c0,0.2,0.5,0.2,0.4-0.1L47.2,70z M53.5,104.5
		c0.4-0.1,0.6-0.1,0.8-0.4h-0.2c-0.4,0.1-0.4,0.1-0.8,0.4H53.5z M53.6,105.5c-0.2,0-0.1,0.5,0.1,0.5
		C53.9,105.9,53.9,105.4,53.6,105.5z M47.7,70.6c0,0,0.4-0.1,0.2,0C47.9,70.3,47.7,70.4,47.7,70.6z M47.8,69.6
		c0,0.2,0.7,0.1,0.6-0.1C48.4,69.5,48,69.6,47.8,69.6z M62.9,146v-0.2c-0.6,0.3-1.4,0.7-1.5,1.5C61.9,147.2,62.8,146.3,62.9,146z
		 M62.7,154.5l0.1,0.5C63,155,62.9,154.5,62.7,154.5z M48.1,70.3l0.4-0.1C48.5,70,48.3,70,48.1,70.3z M62.9,154.5
		c0,0.2,0.3,0.2,0.2,0H62.9z M54.2,103.9l0.8-0.1l11.1-5.1l0.8-0.1l11.4-3.5c0.2-0.3,0.8-0.4,1.2-0.7l-1.3,0.2l-12.6,4.1L54.2,103.9
		z M63.3,154.2c-0.2,0-0.2,0.3,0,0.2C63.6,154.4,63.5,154.2,63.3,154.2z M62.7,149.5c0,0.2,0.2,0.2,0.2,0H62.7z M48.3,66.6
		c-0.2,0-0.2,0.3,0,0.2C48.6,66.8,48.5,66.6,48.3,66.6z M63.7,153.9c-0.2,0-0.1,0.5,0.1,0.5C64,154.3,63.9,153.9,63.7,153.9z
		 M48.8,69.5c-0.2,0,0.6-0.1,0.4-0.1C49.2,69.2,48.8,69.2,48.8,69.5z M63.9,153.9C63.7,153.9,64.1,153.8,63.9,153.9
		C63.9,153.6,63.9,153.6,63.9,153.9z M55.4,104.7c0,0.2,0.5,0.2,0.4-0.1L55.4,104.7z M64.1,153.6c0,0.2,0.2,0.2,0.2,0
		C64.2,153.3,64,153.3,64.1,153.6z M49.6,69.1c0.4-0.1,0.6-0.1,1-0.4c0,0-0.2,0-0.4,0.1c-0.2,0-0.4,0.1-0.8,0.4L49.6,69.1z
		 M64.4,153c-0.2,0-0.1,0.5,0.1,0.5C64.7,153.5,64.6,153,64.4,153z M50.1,69.5c0.2,0,0.4-0.1,0.8-0.4h-0.2c-0.4,0.1-0.6,0.3-1,0.4
		C49.7,69.5,49.9,69.5,50.1,69.5z M64.6,144.3c-0.2,0-0.2,0-0.2,0c-0.4,0.1-0.9,0.9-1.1,1.2C63.7,145.4,64.2,144.8,64.6,144.3z
		 M56.2,104.3c-0.2,0-0.2,0.3,0,0.2V104.3z M49.9,66.1h0.2C50.1,65.8,49.9,65.9,49.9,66.1z M56.6,104.2l0.4-0.1
		C57,103.9,56.6,104,56.6,104.2z M51,70.8c-0.2,0-0.1,0.5,0.1,0.5C51.3,71.2,51.2,70.7,51,70.8z M51.2,68.3c0.4-0.1,1-0.2,1.4-0.7
		h-0.2h-0.2c-0.2,0.3-1.2,0.7-1.4,0.7C50.8,68.4,51,68.4,51.2,68.3z M51.3,69c0.4-0.1,0.6-0.1,1-0.4c-0.2,0-0.2,0-0.4,0.1
		c-0.2,0-0.4,0.1-0.8,0.4L51.3,69z M51.5,70.4c-0.2,0-0.1,0.5,0.1,0.5L51.5,70.4z M57.4,103.8c-0.2,0,0.4-0.1,0.2,0
		C57.6,103.6,57.4,103.6,57.4,103.8z M66.4,153.4c0.2,0,0.3,0.4,0.1,0.5C66.3,153.9,66.2,153.5,66.4,153.4z M50.9,65.5
		c0,0.2,0.5,0.2,0.4-0.1C51.3,65.4,51.1,65.4,50.9,65.5z M66.6,153.4c0-0.2,0.2-0.3,0.2,0H66.6z M66.2,149.8c-0.2,0-0.2,0.3,0,0.2
		C66.4,150,66.4,149.8,66.2,149.8z M65.3,143.4c-0.2,0-0.1,0.5,0.1,0.5C65.6,143.9,65.5,143.4,65.3,143.4z M66.9,152.8
		c0.2,0,0.3,0.4,0.1,0.5C66.8,153.3,66.7,152.9,66.9,152.8z M58.2,103.4c0,0.2,0.3,0.2,0.2,0C58.4,103.2,58.2,103.2,58.2,103.4z
		 M66.6,149.5c-0.2,0-0.2,0.3,0,0.2V149.5z M66.6,149.5h0.2C66.7,149.2,66.7,149.2,66.6,149.5z M65.6,143.1c-0.2,0-0.2,0.3,0,0.2
		C65.9,143.3,65.9,143.1,65.6,143.1z M51.9,65c0,0.2,0.3,0.2,0.2,0H51.9z M58.6,103.1c0,0.2,0.7,0.1,0.6-0.1
		C59.2,103,58.8,103.1,58.6,103.1z M66.9,149.2h0.2C67.1,148.9,66.9,149,66.9,149.2z M66.2,142.5c-0.2,0-0.1,0.5,0.1,0.5
		C66.5,143,66.4,142.5,66.2,142.5z M53.4,67.4c0.4-0.1,0.6-0.1,1-0.4c-0.2,0-0.2,0-0.4,0.1c-0.4,0.1-0.6,0.1-1,0.2L53.4,67.4z
		 M59.4,102.8c-0.2,0.3,0.7,0.1,0.4-0.1L59.4,102.8z M66.4,142.5h0.2C66.4,142.3,66.4,142.3,66.4,142.5z M66.5,142l0.1,0.5
		C66.8,142.4,66.7,142,66.5,142z M66.7,142c0,0.2,0.2,0.2,0.2,0H66.7z M60,102.4c0,0.2,0.7,0.1,0.6-0.1
		C60.4,102.3,60,102.4,60,102.4z M67.1,141.6c-0.2,0-0.2,0.3,0,0.2S67.3,141.6,67.1,141.6z M68.8,147.7v0.2c-0.2,0-0.2,0-0.2,0
		C68.6,147.7,68.6,147.7,68.8,147.7z M60.8,102.3l0.6-0.1C61.4,101.9,61,102,60.8,102.3z M68.9,147.2c0.2,0,0.3,0.4,0.1,0.5
		C68.8,147.7,68.7,147.2,68.9,147.2z M68,140.5c-0.2,0-0.1,0.5,0.1,0.5C68.3,141,68.2,140.5,68,140.5z M69.1,147.1h0.2
		C69.4,147.3,69.2,147.3,69.1,147.1z M61.6,101.9c-0.2,0,0.6-0.1,0.4-0.1C62,101.6,61.5,101.6,61.6,101.9z M69.5,146.8
		c0,0,0,0,0.2,0C69.8,147,69.6,147,69.5,146.8z M68.5,139.9c-0.2,0-0.1,0.5,0.1,0.5L68.5,139.9z M69.7,146.5c0.2,0,0.2,0,0.2,0
		C69.9,146.7,69.7,146.8,69.7,146.5z M68.7,139.9c-0.2,0-0.2,0.3,0,0.2C69,140.1,68.9,139.9,68.7,139.9z M62.2,101.5l0.8-0.1
		C62.8,101.2,62.3,101.3,62.2,101.5z M70.6,145.9c0-0.2,0.3-0.6,0.3-0.6h0.2c-0.2,0.3-0.3,0.8-0.7,0.9L70.6,145.9z M69.4,139.1
		c-0.2,0-0.1,0.5,0.1,0.5C69.7,139.5,69.6,139,69.4,139.1z M70,141.1l0.1,0.5C69.9,141.6,69.8,141.2,70,141.1z M65.5,100
		c-0.8,0.1-1.8,0.8-2.6,1.2l0.8-0.1l12.5-4.4c1.4-0.5,2.4-0.9,3.8-1.4c-0.3-0.2-0.9-0.1-1.1-0.1c-1.3,0.2-2.4,1.1-3.7,1.1L65.5,100z
		 M58.3,66.3c0,0,0.4-0.1,0.6-0.1c-0.6,0.3-0.8,0.4-1.4,0.5c0,0-0.2,0-0.4,0.1C57.5,66.5,57.9,66.4,58.3,66.3z M70,138.5
		c-0.2,0-0.2,0.3,0,0.2C70.2,138.7,70.2,138.4,70,138.5z M70,137.5c-0.2,0-0.1,0.5,0.1,0.5C70.3,137.9,70.2,137.5,70,137.5z
		 M59,67.7c0,0,4-1.4,5.7-2l0.6-0.3c-0.2,0-0.8,0.1-0.8,0.1c-2.1,0.4-4.7,1.3-6.2,2.3l-0.4,0.1L59,67.7z M70.2,137.2
		c-0.2,0-0.1,0.5,0.1,0.5C70.5,137.7,70.4,137.2,70.2,137.2z M70.5,137.9c-0.2,0-0.1,0.5,0.1,0.5L70.5,137.9z M70.5,137.9h0.2
		C70.7,137.6,70.7,137.6,70.5,137.9z M73.7,142.4h-0.2c-0.6,0.1-1.5,1.2-1.8,2C72.5,144.1,73.2,143.2,73.7,142.4z M73.5,143.9h0.2
		c-0.3,0.5-1,1.9-1.8,2C72,145.4,73.3,144,73.5,143.9z M70.8,137.4c-0.2,0-0.1,0.5,0.1,0.5C71.1,137.8,71,137.3,70.8,137.4z
		 M71,137.3c0,0.2,0.3,0.2,0.2,0H71z M71.1,136.3c-0.2,0-0.1,0.5,0.1,0.5C71.4,136.8,71.3,136.3,71.1,136.3z M71.4,136.8
		c-0.2,0-0.1,0.5,0.1,0.5C71.7,137.2,71.6,136.7,71.4,136.8z M71.6,136.7c-0.2,0-0.2,0.3,0,0.2V136.7z M61.4,65.3
		c0.2,0,0.6-0.1,0.8-0.1c-0.8,0.4-1.8,0.8-2.6,0.9l-0.4,0.1C59.7,65.6,60.5,65.5,61.4,65.3z M72.3,140.7v0.2
		C72.6,140.9,72.5,140.7,72.3,140.7z M72.5,140.5c-0.2,0-0.2,0.3,0,0.2C72.7,140.7,72.7,140.4,72.5,140.5z M72.1,136.2
		c-0.2,0-0.1,0.5,0.1,0.5C72.4,136.6,72.3,136.1,72.1,136.2z M72.8,140.2c-0.2,0-0.1,0.5,0.1,0.5C73.1,140.6,73,140.1,72.8,140.2z
		 M72.3,135.9c-0.2,0-0.1,0.5,0.1,0.5C72.6,136.3,72.5,135.8,72.3,135.9z M73.3,140.1v-0.2c-0.2,0-0.2,0.3-0.2,0.3L73.3,140.1z
		 M73.8,143.4l0.1,0.5C73.7,143.9,73.6,143.4,73.8,143.4z M73.8,142.2l0.2-0.3h-0.2c0,0,0,0.2-0.2,0.3
		C73.8,142.2,73.8,142.2,73.8,142.2z M73.8,143.1c0.2,0,0.3,0.4,0.1,0.5L73.8,143.1z M72.6,135.3c-0.2,0-0.1,0.5,0.1,0.5
		C72.9,135.8,72.8,135.3,72.6,135.3z M60.2,62.1h0.2c0.2-0.3,1-0.4,1.2-0.5c-0.2,0-0.6,0.1-0.6,0.1c-0.4,0.1-0.9-0.1-1.2,0.5
		C59.9,62.2,59.9,62.2,60.2,62.1z M73.6,139.5l0.2-0.3c-0.2,0-0.2,0-0.2,0l-0.2,0.3H73.6z M67.4,104.5h0.2
		C67.7,104.7,67.5,104.7,67.4,104.5z M73.1,135.3c-0.2,0-0.2,0.3,0,0.2C73.3,135.5,73.3,135.2,73.1,135.3z M73.9,140.2
		c0.2,0,0.2,0.2,0,0.2C73.8,140.5,73.7,140.2,73.9,140.2z M73.2,135c-0.2,0-0.2,0.3,0,0.2C73.5,135.2,73.4,135,73.2,135z
		 M74.1,140.2c0-0.2,0.2-0.3,0.2,0H74.1z M67.9,103.7c0-0.2,0.6-0.3,0.6-0.1C68.7,103.5,67.7,103.7,67.9,103.7z M61.7,67.2
		c1-0.2,2.3-0.4,3-1h-0.2c-1,0.2-2.2,0.6-3,1H61.7z M73.6,134.7c-0.2,0-0.1,0.5,0.1,0.5L73.6,134.7z M74.5,139.6l0.1,0.5
		C74.3,140.1,74.3,139.7,74.5,139.6z M73.5,134.5l0.1,0.5C73.8,134.9,73.8,134.4,73.5,134.5z M75,141.5c0-0.2,0.2-0.3,0.2,0H75z
		 M73.9,134.1c-0.2,0-0.1,0.5,0.1,0.5C74.2,134.6,74.1,134.1,73.9,134.1z M74.7,138.4c0.2,0,0.3,0.4,0.1,0.5
		C74.5,138.9,74.5,138.4,74.7,138.4z M74.8,139.1c0.2,0,0.3,0.4,0.1,0.5C74.7,139.6,74.6,139.1,74.8,139.1z M75.3,140.9
		c0.2,0,0.3,0.4,0.1,0.5C75.2,141.4,75.1,141,75.3,140.9z M74.3,134.1l0.2-0.3h-0.2l-0.2,0.3H74.3z M75.2,138.8h0.2
		c0,0.2-0.2,0.3-0.2,0.3H75C75,139.1,75.2,139,75.2,138.8z M75.5,139.4v0.2h-0.2C75.3,139.7,75.3,139.5,75.5,139.4z M61.7,61.4
		l1-0.2C62.5,61,61.9,61.1,61.7,61.4z M71.1,62.1c0.2,0,0.6-0.1,0.6-0.1s-0.6,0.3-0.8,0.4c-2,0.6-7.3,2.3-7.3,2.3l-1.2,0.2l6.3-2.1
		C69.5,62.7,70.3,62.3,71.1,62.1z M69.1,103.2c0.2-0.3,0.4-0.3,0.4-0.1L69.1,103.2z M74.7,133.5c0.2,0,0.2,0,0.2,0H74.7
		c0,0,0,0-0.2,0C74.7,133.5,74.7,133.5,74.7,133.5z M75.5,138.5h0.2c0,0,0,0.2-0.2,0.3c0,0,0,0-0.2,0
		C75.5,138.5,75.5,138.5,75.5,138.5z M77,139.7c-0.1,0.5-0.9,1.1-1.2,1.4v-0.2C75.7,140.6,76.6,139.7,77,139.7z M75.6,138.9
		c0.2,0,0.3,0.4,0.1,0.5C75.5,139.4,75.4,139,75.6,138.9z M75.5,137c0,0,0,0,0.2,0l-0.2,0.3h-0.2L75.5,137z M75.9,137.9
		c0.2,0,0.3,0.4,0.1,0.5C75.7,138.4,75.7,138,75.9,137.9z M75.3,133.2l0.2-0.3h-0.2l-0.2,0.3C75.3,133.2,75.3,133.2,75.3,133.2z
		 M69.9,102.8c0-0.2,0.6-0.3,0.6-0.1C70.7,102.7,69.7,102.9,69.9,102.8z M76,136.4h0.2c-0.2,0-0.2,0.3-0.2,0.3h-0.2L76,136.4z
		 M76.3,137.6c0.2,0,0.3,0.4,0.1,0.5C76.1,138.1,76,137.7,76.3,137.6z M76.4,137.3l0.1,0.5C76.3,137.8,76.2,137.4,76.4,137.3z
		 M62.9,60.9l1-0.2C63.7,60.5,63.1,60.6,62.9,60.9z M75.8,132.4h-0.2v0.2C75.8,132.6,75.8,132.4,75.8,132.4z M76.2,135.9
		c0.2,0,0.3,0.4,0.1,0.5L76.2,135.9z M76.8,137c0,0,0,0,0.2,0c0,0-0.2,0.3-0.4,0.3h-0.2C76.6,137.3,76.8,137,76.8,137z M76.4,135.9
		c0.2,0,0.3,0.2,0,0.2C76.2,136.2,76.2,135.9,76.4,135.9z M76.1,132.1c0,0,0.2-0.3,0.4-0.3h-0.2l-0.4,0.3
		C75.9,132.1,75.9,132.1,76.1,132.1z M76.7,135.6c0.2,0,0.3,0.2,0,0.2C76.6,135.9,76.5,135.6,76.7,135.6z M71.5,104.5
		c0-0.2,0.4-0.3,0.4-0.3h-0.2c-0.2,0-0.5-0.2-0.4,0.3H71.5z M76.9,135.3c0.2,0,0.3,0.4,0.1,0.5C76.8,135.8,76.7,135.4,76.9,135.3z
		 M77.1,136.5c0.2,0,0.3,0.4,0.1,0.5C77,137,76.9,136.5,77.1,136.5z M71.3,102.1c0.2,0,0.3,0.4,0.1,0.5
		C71.2,102.6,71.1,102.1,71.3,102.1z M77.3,136.4c0-0.2,0-0.2,0.2,0H77.3z M77.4,135.7v0.2C77.2,136,77.2,135.8,77.4,135.7z
		 M76.5,130.5h0.2C76.7,130.3,76.5,130.3,76.5,130.5z M76.8,131.2h-0.2v0.2C76.9,131.4,76.8,131.2,76.8,131.2z M76.9,132.6
		c0.2,0,0.3,0.4,0.1,0.5L76.9,132.6z M66.6,65.6l-1.3,0.2l0.3,0.2L66.6,65.6z M77.9,134.9c0.2,0,0.3,0.4,0.1,0.5
		C77.8,135.4,77.7,134.9,77.9,134.9z M64.8,60.3c0,0.2,0.7,0.1,0.4-0.1L64.8,60.3z M78.3,134.6v0.2h-0.2
		C78.1,134.9,78.1,134.6,78.3,134.6z M67.5,64.7l7.5-2.3l-1,0.2c-2.7,0.5-5.6,1-7.9,2.4L67.5,64.7z M78.8,134H79l-0.4,0.3h-0.2
		L78.8,134z M72.9,101.6c-0.2,0-0.1,0.5,0.1,0.5C73.2,102,73.1,101.6,72.9,101.6z M73.4,101.7c0,0.2,0.2,0.2,0.2,0H73.4z
		 M79.4,134.6c0.2,0,0.3,0.4,0.1,0.5C79.2,135.1,79.2,134.7,79.4,134.6z M79.4,133.4v0.2c-0.2,0-0.2,0-0.2,0S79.2,133.5,79.4,133.4z
		 M66.4,59.8c0,0.2,0.3,0.2,0.2,0H66.4z M79.5,134.4c0.2,0,0.3,0.4,0.1,0.5L79.5,134.4z M79.9,134.1v0.2h-0.2L79.9,134.1z
		 M78.9,128.4c0.2,0,0.3,0.2,0,0.2C78.8,128.7,78.7,128.4,78.9,128.4z M79.7,132.9c0.2,0,0.3,0.4,0.1,0.5
		C79.6,133.4,79.5,132.9,79.7,132.9z M67,59.7c0,0.2,0.5,0.2,0.4-0.1C67.2,59.7,67,59.7,67,59.7z M74.8,55.2
		c0.6-0.1,2.3-0.2,2.5-0.2l1.2-0.2c-3.7,0.7-7,1.5-10.8,2.1c-0.2,0-0.8,0.1-1,0.2C69.8,56.1,71.7,55.7,74.8,55.2z M79.5,127.8
		l0.1,0.5C79.3,128.3,79.2,127.9,79.5,127.8z M79.6,127.6c0.2,0,0.3,0.4,0.1,0.5C79.5,128.1,79.4,127.6,79.6,127.6z M79.8,127.3
		c0.2,0,0.3,0.4,0.1,0.5C79.7,127.8,79.6,127.3,79.8,127.3z M80.2,127.2c0.2,0,0.3,0.2,0,0.2C80,127.5,80,127.3,80.2,127.2z
		 M68.4,59.2c-0.2,0.3,1.3,0,1-0.2C69.3,59.1,68.4,59.2,68.4,59.2z M80.6,126.9c0-0.2,0.5-0.8,0.5-0.8h0.2c-0.2,0.3-0.5,1-0.9,1.1
		C80.4,126.9,80.4,126.9,80.6,126.9z M68.9,60.8c-0.2,0-0.1,0.5,0.1,0.5L68.9,60.8z M75.6,98.5v0.2C75.8,98.6,75.8,98.4,75.6,98.5z
		 M80.4,125.7c0.2,0,0.3,0.2,0,0.2V125.7z M80.5,125.5c0.2,0,0.2,0.2,0,0.2C80.4,125.7,80.3,125.5,80.5,125.5z M76.6,101.7
		c0.2,0,0.3,0.4,0.1,0.5C76.4,102.2,76.3,101.7,76.6,101.7z M80.6,122.3c-0.2,0-0.1,0.5,0.1,0.5C80.9,122.7,80.8,122.3,80.6,122.3z
		 M81.1,124.9c0.2,0,0.3,0.4,0.1,0.5C81,125.4,80.9,124.9,81.1,124.9z M81.4,125.6l0.1,0.5C81.3,126.1,81.2,125.6,81.4,125.6z
		 M81.9,123.8h0.2c0,0,0,0.2,0.2,0.2c-0.4,0.3-0.7,0.9-1.1,0.9L81.9,123.8z M69.8,58.2c-0.2,0-0.1,0.5,0.1,0.5
		C70,58.7,70,58.2,69.8,58.2z M81.8,125.5c0-0.2,0.2-0.3,0.2,0H81.8z M81.7,122.1c0.2,0,0.3,0.4,0.1,0.5
		C81.5,122.6,81.5,122.1,81.7,122.1z M81.7,121.4c0.2,0,0.2,0.2,0,0.2C81.6,121.6,81.5,121.4,81.7,121.4z M76.8,93.4
		c-0.2,0.3,0.5,0.2,0.2,0H76.8z M82.2,123c0.2,0,0.3,0.4,0.1,0.5L82.2,123z M71.9,58.3c-0.2,0-0.2,0.3,0,0.2V58.3z M79.8,93.6
		c0-0.2-0.3-0.2-0.3-0.2s-0.7-0.1-0.9-0.1l0.1,0.5L79.8,93.6z M76.2,62.2c0.4-0.1,1.7-0.3,2-0.6L75.9,62v0.2
		C76,62.2,76,62.2,76.2,62.2z M77.3,60.8c0.2,0,1.5-0.3,1.9-0.3C79.4,60.7,76.9,61.1,77.3,60.8z M79.4,54.8h0.2
		C79.9,55,79.5,55.1,79.4,54.8z M81.1,54.5c0.2,0,0.3,0.4,0.1,0.5C81,55.1,80.9,54.6,81.1,54.5z M81.8,54.9c0-0.2,0.2-0.3,0.2,0
		H81.8z M83.9,57.9h-0.2c0.1,0.5,1.8,0.4,2,0.4C85.3,57.7,84.1,57.9,83.9,57.9z"/>
	<path fill="#FFFFFF" d="M82.6,107.4c0.1-5.8,1-10.3,2.8-13.5c1.7-3.2,4.3-5.1,7.7-5.7c1.3-0.2,2.5-0.1,3.7,0.4s2.2,1.3,3.1,2.4
		l0.6-3.5l7.5-1.3l-1.1,47.8l-8.7,1.5l0.3-15.4c-0.7,1-1.6,1.9-2.5,2.5s-1.9,1-2.9,1.2c-3.1,0.6-5.7-0.7-7.7-3.7s-3-7-2.9-12.1
		L82.6,107.4z M91.3,106.5c-0.1,3.3,0.2,5.9,0.7,7.6c0.6,1.7,1.6,2.4,3.1,2.2c0.8-0.1,1.4-0.5,2.1-1.1c0.6-0.6,1.1-1.4,1.6-2.4
		l0.4-16.6c-0.4-0.5-0.8-0.9-1.4-1.1c-0.6-0.2-1.2-0.3-2-0.1c-1.4,0.2-2.5,1.3-3.2,3.3s-1.2,4.5-1.2,7.6L91.3,106.5z"/>
	<path fill="#FFFFFF" d="M129.5,116.7l-0.4-3.6c-0.9,1.6-1.9,2.8-3.1,3.8c-1.2,0.9-2.6,1.5-4.2,1.8c-2.6,0.5-4.8-0.3-6.4-2.4
		c-1.6-2.1-2.4-5.5-2.3-10.3l0.5-20.9l8.7-1.5l-0.5,20.9c-0.1,2.6,0.1,4.4,0.6,5.3c0.5,0.9,1.2,1.3,2.3,1.1c0.8-0.1,1.6-0.5,2.2-1
		s1.3-1.2,1.8-2l0.6-25.7l8.7-1.5l-0.8,34.5L129.5,116.7z"/>
	<path fill="#FFFFFF" d="M151.9,112.8l-8.7,1.5l0.8-34.5l8.7-1.5L151.9,112.8z M149.1,66.2l9.1-1.6l0.1,0.2l-7.2,9.5l-7,1.2
		L149.1,66.2z"/>
	<path fill="#FFFFFF" d="M183.6,91.5c-0.1,5.5-1.1,9.7-2.8,12.8c-1.7,3-4.2,4.8-7.6,5.4c-1.2,0.2-2.4,0.2-3.5-0.1s-2.1-0.9-2.9-1.7
		l-0.3,15.6l-8.7,1.5l1.1-47.8l8.1-1.4l0.2,2.6c0.8-1.2,1.6-2.1,2.6-2.9c1-0.7,2-1.2,3.2-1.4c3.1-0.6,5.7,0.8,7.8,4
		c2,3.2,3,7.5,2.9,12.8L183.6,91.5z M174.9,92.4c0.1-3.5-0.2-6.3-0.8-8.2c-0.6-1.9-1.6-2.8-3.1-2.5c-0.8,0.1-1.5,0.6-2.1,1.3
		c-0.6,0.7-1.1,1.6-1.6,2.7l-0.4,16.6c0.4,0.4,0.8,0.7,1.4,0.8s1.3,0.1,2.2-0.1c1.4-0.2,2.4-1.2,3.2-2.9c0.7-1.7,1.1-4,1.2-7
		L174.9,92.4z"/>
	<path fill="#FFFFFF" d="M203.1,103.8c-0.2-0.5-0.4-1.1-0.6-1.7c-0.2-0.6-0.3-1.3-0.4-2c-0.8,1.5-1.7,2.8-2.8,3.8
		c-1.1,1-2.4,1.7-3.8,1.9c-2.5,0.4-4.5-0.2-6.1-1.8s-2.4-3.9-2.3-7c0.1-3.6,1.1-6.5,3.1-8.6s5-3.5,9.1-4.2l3-0.5l0.1-2.8
		c0-1.8-0.2-3.1-0.7-3.8s-1.2-1.1-2.3-0.9c-0.8,0.1-1.4,0.6-1.9,1.4s-0.7,1.9-0.7,3.2l-8.4,1.5l-0.1-0.2c0-3.2,1.1-6,3.2-8.4
		c2.2-2.4,5-3.9,8.6-4.5c3.1-0.6,5.8,0,7.9,1.8s3.2,4.5,3.1,8.3l-0.3,14c0,1.8,0,3.4,0.2,4.7c0.2,1.4,0.5,2.7,0.9,4.1L203.1,103.8z
		 M198.1,98.5c0.7-0.1,1.4-0.5,2.1-1.1s1.2-1.3,1.6-2.1l0.1-6.4l-3,0.5c-1.1,0.2-1.9,0.8-2.5,1.9c-0.6,1.1-0.9,2.3-0.9,3.8
		c0,1.2,0.2,2.2,0.6,2.8S197.3,98.7,198.1,98.5z"/>
	<path fill="#FFFFFF" d="M227,56.6l-0.2,8.6l4.3-0.8L231,71l-4.3,0.8l-0.4,17.3c-0.1,1.5,0.1,2.5,0.4,3s0.8,0.7,1.5,0.6
		c0.5-0.1,0.9-0.2,1.2-0.3c0.4-0.1,0.8-0.3,1.2-0.5l0.5,6.8c-0.9,0.5-1.8,0.8-2.6,1.1c-0.8,0.3-1.7,0.5-2.8,0.7
		c-2.6,0.5-4.6-0.1-6.1-1.7c-1.5-1.6-2.2-4.3-2.1-8.1l0.4-17.4l-3.7,0.7l0.1-6.6l3.7-0.7l0.2-8.6L227,56.6z"/>
	<path fill="#FFFFFF" d="M119.5,156.5c-2,0.4-3.7-0.2-5-1.6s-2.1-3.4-2.1-6l-0.1-3.4c0-2.7,0.6-5,1.8-6.9c1.3-1.9,2.8-3,4.7-3.3
		s3.5,0.2,4.7,1.5s1.8,3.3,1.8,5.9v2.3l-10.9,1.9v1.7c0,2.1,0.5,3.7,1.4,4.8s2.1,1.6,3.6,1.3c1-0.2,1.9-0.5,2.7-1.1s1.4-1.2,1.9-2
		l0.9,1.5c-0.6,0.9-1.3,1.7-2.2,2.3C121.9,155.8,120.8,156.2,119.5,156.5z M118.9,137.2c-1.2,0.2-2.3,1.1-3.1,2.5s-1.2,3.1-1.2,5
		l0.1,0.1l8.5-1.5v-0.9c0-1.8-0.4-3.1-1.2-4.1C121.2,137.3,120.2,136.9,118.9,137.2z"/>
	<path fill="#FFFFFF" d="M131.6,136.4h0.1c0.5-1.2,1.1-2.2,2-3s1.8-1.2,3-1.4c1.6-0.3,2.9,0.2,3.8,1.4s1.4,3.3,1.3,6.1l-0.3,12.6
		l-2.2,0.4l0.3-12.6c0.1-2.5-0.2-4.2-0.8-4.9s-1.5-1.1-2.7-0.8c-1,0.2-1.9,0.7-2.6,1.7s-1.3,2.1-1.8,3.5l-0.3,14.6l-2.2,0.4
		l0.5-20.7l1.9-0.3L131.6,136.4z"/>
	<path fill="#FFFFFF" d="M153.5,138.2c0-2.8,0.5-5.1,1.8-7s2.9-3,5.1-3.4c2-0.4,3.7,0.2,5.1,1.7c1.3,1.5,2,3.6,2.1,6.2l0.1,3
		c0,2.8-0.6,5.1-1.8,7c-1.2,1.9-2.9,3-5.1,3.4c-2.1,0.4-3.8-0.2-5.1-1.7s-2-3.6-2.1-6.2L153.5,138.2z M155.7,140.9
		c0,2.1,0.5,3.8,1.3,5c0.9,1.2,2.1,1.7,3.6,1.4s2.6-1.2,3.5-2.7s1.3-3.3,1.2-5.4l-0.1-3c0-2.1-0.5-3.7-1.3-4.9
		c-0.9-1.2-2.1-1.7-3.6-1.4s-2.6,1.2-3.5,2.7c-0.8,1.5-1.3,3.3-1.2,5.3L155.7,140.9z"/>
	<path fill="#FFFFFF" d="M175.3,120.3l-0.1,5.3l3.3-0.6v2l-3.3,0.6l-0.3,13.4c0,1.4,0.1,2.4,0.4,2.8c0.3,0.5,0.8,0.6,1.4,0.5
		c0.3,0,0.5-0.1,0.8-0.2s0.6-0.2,0.9-0.3l0.2,1.7c-0.3,0.2-0.7,0.4-1.1,0.6c-0.5,0.2-0.9,0.3-1.4,0.4c-1.1,0.2-1.9-0.1-2.6-0.9
		c-0.7-0.8-1-2.2-0.9-4.2l0.3-13.4l-2.6,0.5v-2l2.6-0.5l0.1-5.3L175.3,120.3z"/>
	<path fill="#FFFFFF" d="M181,133.4c0-2.8,0.5-5.1,1.8-7c1.2-1.9,2.9-3,5.1-3.4c2-0.4,3.7,0.2,5.1,1.7c1.3,1.5,2,3.6,2.1,6.2l0.1,3
		c0,2.8-0.6,5.1-1.8,7c-1.2,1.9-2.9,3-5.1,3.4c-2.1,0.4-3.8-0.2-5.1-1.7s-2-3.6-2.1-6.2L181,133.4z M183.3,136c0,2.1,0.5,3.8,1.3,5
		c0.9,1.2,2.1,1.7,3.6,1.4s2.6-1.2,3.5-2.7s1.3-3.3,1.2-5.4l-0.1-3c0-2.1-0.5-3.7-1.3-4.9s-2.1-1.7-3.6-1.4s-2.6,1.2-3.5,2.7
		c-0.8,1.5-1.3,3.3-1.2,5.3L183.3,136z"/>
	<path fill="#FFFFFF" d="M201.6,124h0.1c0.5-1.2,1.1-2.2,2-3s1.8-1.2,3-1.4c1.6-0.3,2.9,0.2,3.8,1.4s1.4,3.3,1.3,6.1l-0.3,12.6
		l-2.2,0.4l0.3-12.6c0.1-2.5-0.2-4.2-0.8-4.9s-1.5-1.1-2.7-0.8c-1,0.2-1.9,0.7-2.6,1.7s-1.3,2.1-1.8,3.5l-0.3,14.6l-2.2,0.4
		l0.5-20.7l1.9-0.3L201.6,124z M210.6,111.3c0,1.2-0.2,2.2-0.8,3c-0.5,0.8-1.2,1.3-2.1,1.5c-0.7,0.1-1.4-0.1-2.2-0.7
		s-1.4-0.8-1.9-0.7c-0.4,0.1-0.8,0.4-1.1,0.9c-0.3,0.5-0.5,1.1-0.4,1.8l-1.3-0.1c0-1.1,0.2-2.1,0.8-3s1.2-1.3,2.1-1.5
		c0.6-0.1,1.2,0.1,2.1,0.7s1.5,0.8,2,0.7c0.4-0.1,0.8-0.4,1.1-0.9c0.3-0.5,0.5-1.1,0.4-1.8L210.6,111.3z"/>
	<path fill="#FFFFFF" d="M215.6,127.3c0-2.8,0.5-5.1,1.8-7s2.9-3,5.1-3.4c2-0.4,3.7,0.2,5.1,1.7c1.3,1.5,2,3.6,2.1,6.2l0.1,3
		c0,2.8-0.6,5.1-1.8,7c-1.2,1.9-2.9,3-5.1,3.4c-2.1,0.4-3.8-0.2-5.1-1.7s-2-3.6-2.1-6.2L215.6,127.3z M217.8,130
		c0,2.1,0.5,3.8,1.3,5c0.9,1.2,2.1,1.7,3.6,1.4s2.6-1.2,3.5-2.7s1.3-3.3,1.2-5.4l-0.1-3c0-2.1-0.5-3.7-1.3-4.9
		c-0.9-1.2-2.1-1.7-3.6-1.4s-2.6,1.2-3.5,2.7c-0.8,1.5-1.3,3.3-1.2,5.3L217.8,130z"/>
	<path fill="#3F5935" d="M282.4,119.8c0.6-1.1,0.9-2.4,0.5-3.9c-0.3-1-0.3-2.1-0.6-3.1c-1.2-4.9,1.6-8.2,5.4-10
		c3.4-1.6,7.1-2,10.8-1.8c3.9,0.2,7.6,0.9,11.2,2.4c0.6,0.3,0.7,0,0.7-0.5c-0.1-2,0.5-3.9,1.2-5.8c0.6-1.7,2-2.7,3.6-3.3
		c1.5-0.6,3.1-0.9,4.7-1.3c0.8-0.2,1.6-0.4,2.5-0.7c-0.3-0.3-0.6-0.6-0.8-0.8c-2-1.8-4.1-3.5-6-5.4c-1.5-1.6-1.8-3.6-1.4-5.8
		c0.5-2.7,2-4.7,3.9-6.8c-1.8,0.1-3.4,0.1-5.1,0.3c-2.1,0.2-4.3,0.7-6.4,0.9c-1.9,0.2-3.7,0.3-5.6-0.3c-2.7-0.8-4.1-3.9-3-6.5
		c0.6-1.4,1.6-2.7,2.5-4c1.5-2.1,3.1-4.1,4.5-6.2c2.3-3.5,4.2-7.1,5.4-11.1c0.4-1.3,0.8-2.6,1.2-4c-1.5,0.3-2.7,0.5-4,0.7
		c-2.6,0.3-5.2,0.3-7.7-0.6c-2.4-0.8-3.9-2.7-5-4.9c-1-2-1.6-4.2-2.4-6.3c-0.1-0.3-0.3-0.5-0.3-0.7c-1.2,2-2.4,4-3.7,6
		c-1.4,2-3.4,3.3-5.9,3.8c-4.3,0.9-8.1,0-11.9-2.4c0.1,0.5,0.1,0.8,0.2,1.1c0.7,3.8,1.4,7.6,2,11.5c0.6,3.4,1.1,6.8,1,10.2
		c-0.1,2.3-0.5,4.6-2.4,6.3c-2.3,2-5.6,2-7.7-0.2c-2.3-2.4-4.3-5.1-6.4-7.6c-1.6-2-3.4-3.8-5.5-5.3c-0.1,1.7-0.2,3.3-0.4,4.9
		c-0.4,2.5-1.8,4.1-4.1,5.1c-2,0.8-4.1,0.6-6.1,0.4c-0.7-0.1-1.3-0.2-1.9-0.3c1,2,2.1,4,3.1,6.1c1.5,3.3,1.6,6.5-0.4,9.7
		c-1.5,2.4-3.2,3.6-5,4.5c2.1,1.8,4.6,3,7.2,3.8c3.5,1,7.2,1.7,10.7,2.6c3.1,0.8,4.2,1.7,4.5,4.3c0.3,2.9-0.7,5.4-2.7,7.4
		c-1.6,1.6-3.3,3-5,4.5c0.6,0.1,1.2,0.3,1.8,0.4c2.2,0.3,4.1,1.3,5.8,2.6c0.9,0.7,1.2,2.1,0.6,3.1c-2.5,4.7-6.4,8.1-11.1,10.6
		c-3,1.6-6.2,2.9-9.5,3.9c-0.6,0.2-1.1,0.4-1.7,0.7c-0.2,0.1-0.6,0.4-0.6,0.5c0.1,0.3,0.3,0.7,0.5,0.7c0.8,0.1,1.8,0.2,2.5-0.1
		c2.8-1.1,5.5-2.1,8.1-3.5c4-2.1,7.4-5.1,10.5-8.3c3-3.1,5.8-6.4,8-10.1c2.4-3.9,4.6-7.9,6.8-11.9c0.3-0.6,0.2-1.1-0.2-1.6
		c-2.3-3.3-5-6.2-8-8.8c-2.2-1.8-4.4-3.7-6.7-5.4c-1.6-1.2-3.4-2.1-5.1-3c-1.2-0.6-1.8-1.9-1.3-3s1.9-1.5,3.1-0.9s2.3,1.2,3.4,1.8
		c4.7,3,9.1,6.4,12.9,10.5c1.5,1.6,2.9,3.3,4.5,5c0.8-1.9,1.7-3.9,2.4-5.8c1.8-5.1,3.6-10.2,5.1-15.3c1.5-5.4,2.5-10.8,3.8-16.3
		c0.2-0.8,0.3-1.6,0.5-2.4c0.3-1.2,1.2-2.1,2.7-1.8c1.1,0.2,1.7,1.3,1.5,2.6c-0.6,3.2-1.1,6.5-1.9,9.7c-1.2,4.8-2.4,9.7-3.8,14.4
		c-1.6,5.1-3.6,10.2-5.4,15.2c1-0.3,2.1-0.6,3.2-0.9c0.9-0.3,1.7-0.6,2.6-0.8c2.1-0.5,4.3-1,6.4-1.3c6.2-0.9,12.4-1.1,18.5-0.1
		c1,0.2,1.8,0.4,2.2,1.5c0.5,1.4-0.4,3-2.8,2.8c-3.1-0.3-6.2-0.7-9.2-0.6c-3.1,0.1-6.2,0.6-9.3,1c-4.7,0.6-9.2,2.1-13.5,4
		c-0.6,0.3-1,0.6-1.4,1.2c-2.2,4.4-4.6,8.7-7.3,12.8c-3.4,5.2-7.4,9.9-12,14c-4.4,3.9-9.3,7-14.9,8.9c-1.9,0.6-3.8,1.5-5.9,1.1
		c-2.9-0.5-4.8-2.6-4.7-5.5c0-1.9,1.2-3.3,3-4c2.6-1,5.3-1.9,7.9-3c4.1-1.7,7.8-3.9,10.5-7.5c0.3-0.4,0.7-0.8,1.1-1.3
		c-2.1-0.8-4.1-1.6-6.3-1.1c-0.6,0.2-1.2,0.6-1.8,0.6c-1.7,0-2.6-0.7-2.3-2.8c0.3-2.3,1.7-3.8,3.3-5.2c1.9-1.7,3.8-3.2,5.5-5
		c0.7-0.7,1-1.8,1.4-2.8c0.2-0.6-0.1-1.1-0.9-1.3c-2.2-0.4-4.4-0.9-6.6-1.4c-4.8-1.1-9.5-2.7-13.4-5.8c-1-0.8-2-1.7-2.8-2.8
		c-1.1-1.4-0.6-2.9,1.4-3.6c1.3-0.5,2.6-1,3.7-1.7c1.9-1.3,2.9-3.2,2.7-5.5c-0.1-1.2-0.6-2.4-1.2-3.6c-1.6-3.1-3.5-5.9-5.8-8.4
		c-0.2-0.3-0.5-0.5-0.7-0.8c-0.7-0.9-0.8-2.1-0.4-2.7c0.7-0.9,1.8-1.2,3-0.8c1.7,0.6,3.5,1.3,5.2,1.7c1.6,0.4,3.2,0.6,4.9,0.6
		c1.9,0.1,2.8-0.9,3.2-2.8c0.3-1.9-0.1-3.8-0.4-5.7c-0.1-0.6-0.1-1.2-0.1-1.7c0-1.5,1.6-2.2,3-1.7c3.7,1.3,6.8,3.5,9.3,6.5
		c2,2.3,3.8,4.8,5.7,7.2c0.5,0.7,1.2,1.3,1.9,1.8c1,0.8,1.9,0.4,2.3-0.8c0.6-1.7,0.6-3.4,0.4-5.2c-0.3-2.7-0.6-5.4-1-8.1
		s-1.1-5.3-1.5-7.9c-0.4-2.8-0.7-5.7-0.9-8.5c-0.1-1,0.5-1.8,1.4-2.1c0.9-0.3,1.8-0.1,2.5,0.6c2.2,2.4,4.9,3.9,8.1,4.5
		c3.3,0.6,6,0,8-3.8c1.7-3.1,3.1-6.3,4.7-9.5c0.3-0.7,1.6-1.4,2.4-1.2c1,0.2,1.5,1,1.8,1.9c0.9,3,1.7,6.1,2.6,9.1
		c0.4,1.4,1.2,2.6,1.9,3.9c1.1,2,3.2,2.2,5.1,2.3c1.2,0.1,2.4,0,3.5-0.2c1.7-0.4,3.4-0.9,5-1.5c0.9-0.3,1.8-0.6,2.6,0.1
		c0.8,0.7,1,1.6,0.7,2.6c-0.6,2.4-1,4.9-1.7,7.3c-1,3.5-2.4,6.8-4.4,9.8c-1.6,2.6-3.4,5-5.1,7.5c-1,1.4-2,2.7-2.9,4.2
		c-0.6,0.9-0.4,1.4,0.7,1.5c0.7,0.1,1.4,0.2,2.1,0.1c2.9-0.3,5.7-0.8,8.6-1.1c3-0.3,6.1-0.5,9,0.5c0.9,0.3,1.8,0.6,2.1,1.6
		c0.3,0.9,0.1,1.8-0.6,2.4c-1.5,1.3-3,2.6-4.3,4c-1,1.1-1.6,2.6-1.6,4.1c0,0.5,0.4,1.1,0.8,1.5c1.5,1.4,3,2.8,4.5,4.1
		c1.6,1.4,3.3,2.7,4.9,4.2c0.7,0.6,1,1.4,0.8,2.4c-0.3,1.1-1.1,1.5-2,1.7c-2.6,0.5-5.1,0.9-7.7,1.4c-0.9,0.2-1.8,0.6-2.7,0.8
		c-1,0.3-1.6,1-1.9,2c-0.7,2.4-0.9,4.7,0,7c0.4,0.9,0.1,2.1-0.5,2.6c-0.7,0.5-2,0.6-2.9,0.1c-4.5-2.9-9.6-4.1-14.9-4.1
		c-2.5,0-5.1,0.4-7.4,1.4c-2.5,1.1-4,3.1-2.9,6.4c1.4,4.3,0.6,8.3-2.6,11.7c-0.6,0.6-1.1,1.2-2.1,1.3c-0.9,0.1-1.7-0.3-2-1.1
		c-1.1-3.1-3.5-4.5-6.4-5.5c-1.2-0.4-2.5-0.8-3.8-1.1c-1.3-0.4-2-1.5-1.7-2.8c0.2-1.1,1.8-1.8,3-1.4c2.4,0.8,4.8,1.5,7.1,2.6
		C279.8,117.6,281.1,118.8,282.4,119.8z"/>
	<path fill="#3F5935" d="M256.2,1.6c-2.9,8.1-6.5,15.9-10.6,23.4c-3.8,6.9-8,14-14.2,19.1c-2.1,1.7-4.7,3.3-7.4,3.6
		c2.4-2.1,4.4-4.7,5.7-7.6c1.9-4.3,1.5-10-3.3-12.2c-4.2-1.8-9,0.5-11.4,4.2c-2.5,3.9-3.4,9.2-2,13.6c0.3,0.8,0.6,1.5,1,2.2
		c-2.2,0.9-4.5,1.4-6.9,1.6c-1.4,0.1-2.4,1.7-2.1,3c0.3,1.5,1.6,2.2,3,2.1c3.5-0.3,7-1.3,10.2-2.9c1.7,0.8,3.5,1.3,5.5,1.2
		c5.1-0.1,9.6-3.1,13.2-6.6c3.5-3.3,6.4-7.2,9-11.3c6.3-9.9,11.3-20.7,15.4-31.7C262.2,0.3,257.3-1.5,256.2,1.6z M217.5,40.4
		c0.3-2.7,1.4-6.5,4.3-7.5c0.9-0.3,2.1-0.4,2.9,0.3c1,0.9,0.8,2.6,0.5,3.7c-1,3.5-3.9,6.4-6.7,8.6C217.6,44,217.4,42.2,217.5,40.4z"
		/>
	<path fill="#3F5935" d="M275.4,13.9c-9.4,4.9-20.3,11.1-23,22.1c-0.3,1.4,0.1,2.8,1.5,3.4c1.2,0.4,3-0.2,3.4-1.5
		c2.4-9.7,12.1-15,20.4-19.2C280.7,17.1,278.5,12.3,275.4,13.9z"/>
	<path fill="#3F5935" d="M320.1,143.1c-5.4-8.1-15.3-12-24.7-12.3c-5.8-0.2-11.5,0.8-17.1,2.2c-5.4,1.4-11.1,2.8-15.6,6.2
		c-0.1,0-0.1,0.1-0.2,0.1c-3.2-1-6.6-1.2-9.9-0.2c-5.3,1.5-9.5,5.3-11.7,10.3c-1.3,3.1,3.6,4.9,4.9,1.8c2.1-5,7.3-7.9,12.5-7.4
		c-1.5,2.3-2.3,5-2.1,7.8c0.3,4.6,3.7,9.1,8.4,9.6c4.4,0.5,9-2.5,9.6-7c0.6-4.7-2.8-9.4-6.4-12.1c0.1-0.1,0.2-0.1,0.3-0.2
		c3.9-2,8.4-3.1,12.7-4.1c4.5-1.1,9.1-1.8,13.7-1.7c8.3,0.2,16.7,3.3,21.5,10.5c0.8,1.2,2.7,1.1,3.7,0.3
		C320.9,145.8,320.9,144.3,320.1,143.1z M268.8,151.9c0.8,2.7-1.4,4.5-3.8,4.1c-2.6-0.4-3.9-3.9-3.5-6.4c0.3-1.6,1-2.9,2-4.1
		C265.9,146.9,268,149.2,268.8,151.9z"/>
	<path fill="#3F5935" d="M319.1,121.2c-7.6-3.3-16.3-3.3-24-0.3c-1.3,0.5-1.8,2.3-1.2,3.5c0.6,1.4,2.2,1.8,3.5,1.2
		c6.4-2.5,13.6-2.3,19.9,0.4c1.3,0.6,2.9-0.3,3.4-1.5C321.1,123.2,320.4,121.8,319.1,121.2z"/>
	<path fill="#FFFFFF" d="M13.3,125.6l-3.5,0.6l-1.9,12.4l-4.8,0.9L5,127.1L0,128l0.1-4.9l5.6-1l1.4-9L2,114l0.1-4.9l5.7-1l1.9-12.5
		l4.8-0.9l-1.9,12.5l3.4-0.6l1.9-12.5l4.9-0.9l-1.9,12.5l5-0.9l-0.1,4.9l-5.7,1l-1.4,9l5.1-0.9l-0.1,4.9l-5.7,1l-1.9,12.4l-4.9,0.9
		L13.3,125.6z M14.1,120.6l1.4-9l-3.5,0.6l-1.4,9L14.1,120.6z"/>
	<path fill="#FFFFFF" d="M248.2,96.5c-3.9,0.7-7.1-0.2-9.5-2.6s-3.7-5.8-3.8-10l-0.1-4.8c-0.1-4.8,0.9-8.8,3.1-12.1
		c2.1-3.3,5.1-5.2,9.1-5.9c3.6-0.6,6.5,0.2,8.7,2.5s3.3,5.8,3.4,10.3l0.1,5.5l-15.5,2.7v0.1c0,2.4,0.5,4.2,1.4,5.4s2.3,1.7,4.2,1.4
		c1.5-0.3,2.7-0.7,3.7-1.2c1-0.6,2.2-1.4,3.5-2.5l2.3,5.4c-1.1,1.3-2.5,2.5-4.4,3.6C252.5,95.4,250.4,96.1,248.2,96.5z M247,68.2
		c-1.2,0.2-2.1,1-2.6,2.5c-0.6,1.4-0.9,3.2-1,5.5l7-1.2v-1.3c0-2-0.3-3.4-0.8-4.4C249,68.4,248.2,68,247,68.2z"/>
</g>
</svg>
